<?xml version="1.0" encoding="UTF-8" standalone="no"?>
<svg
   xmlns:dc="http://purl.org/dc/elements/1.1/"
   xmlns:cc="http://creativecommons.org/ns#"
   xmlns:rdf="http://www.w3.org/1999/02/22-rdf-syntax-ns#"
   xmlns:svg="http://www.w3.org/2000/svg"
   xmlns="http://www.w3.org/2000/svg"
   id="svg2432"
   version="1.1"
   viewBox="0 0 84.328499 73.03064"
   height="73.03064mm"
   width="84.328499mm">
  <defs
     id="defs2426">
    <clipPath
       id="clipPath3431"
       clipPathUnits="userSpaceOnUse">
      <rect
         style="opacity:1;fill:none;stroke:#ff0000;stroke-width:5.29167;stroke-linecap:square;stroke-linejoin:round;stroke-miterlimit:4;stroke-dasharray:none;paint-order:stroke fill markers"
         id="rect3433"
         width="84.328499"
         height="73.03064"
         x="90.714302"
         y="84.810341" />
    </clipPath>
    <clipPath
       clipPathUnits="userSpaceOnUse"
       id="clipPath3431-5">
      <rect
         y="84.810341"
         x="90.714302"
         height="73.03064"
         width="84.328499"
         id="rect3433-0"
         style="opacity:1;fill:none;stroke:#ff0000;stroke-width:5.29167;stroke-linecap:square;stroke-linejoin:round;stroke-miterlimit:4;stroke-dasharray:none;paint-order:stroke fill markers" />
    </clipPath>
    <pattern
       id="pattern4421"
       patternTransform="translate(-310.78952,-212.29636)"
       height="276.02132"
       width="318.72189"
       patternUnits="userSpaceOnUse">
      <path
         clip-path="url(#clipPath3431-5)"
         d="M 175.04279,60.466801 V 84.810345 L 153.96066,96.982117 132.87854,84.810345 V 60.466801 l 21.08212,-12.171772 z m -42.16425,0 V 84.810345 L 111.79641,96.982117 90.714282,84.810345 V 60.466801 L 111.79641,48.295029 Z m 63.24639,36.515319 v 24.34354 L 175.0428,133.49744 153.96067,121.32566 V 96.982121 L 175.0428,84.810349 Z m -42.16426,0 v 24.34354 l -21.08213,12.17178 -21.08213,-12.17178 V 96.982121 L 132.87854,84.810349 Z M 90.714284,60.466801 V 84.810345 L 69.632156,96.982117 48.550029,84.810345 V 60.466801 L 69.632156,48.295029 Z m -42.164242,0 V 84.810345 L 27.467915,96.982117 6.3857871,84.810345 6.385787,60.466801 27.467914,48.295029 Z M 111.79641,96.98212 v 24.34354 L 90.714287,133.49744 69.632159,121.32566 V 96.982121 L 90.714287,84.810349 Z m -42.164245,0 v 24.34354 L 48.550037,133.49744 27.46791,121.32566 V 96.982121 L 48.550037,84.810349 Z m 147.574885,36.51531 v 24.34355 l -21.08213,12.17177 -21.08212,-12.17177 v -24.34355 l 21.08212,-12.17177 z m -42.16426,0 v 24.34355 l -21.08213,12.17177 -21.08212,-12.17177 v -24.34355 l 21.08212,-12.17177 z m 63.24637,36.51532 V 194.3563 L 217.20703,206.52807 196.1249,194.3563 v -24.34355 l 21.08213,-12.17177 z m -42.16423,0 V 194.3563 L 175.0428,206.52807 153.96067,194.3563 v -24.34355 l 21.08213,-12.17177 z m -63.24639,-36.51532 v 24.34355 l -21.08213,12.17177 -21.082128,-12.17177 v -24.34355 l 21.082128,-12.17177 z m -42.164256,0 v 24.34355 L 69.632156,170.01275 48.550029,157.84098 v -24.34355 l 21.082127,-12.17177 z m 63.246386,36.51532 v 24.34355 l -21.08213,12.17177 -21.08213,-12.17177 v -24.34355 l 21.08213,-12.17177 z m -42.16426,0 V 194.3563 L 90.714279,206.52807 69.632152,194.3563 v -24.34355 l 21.082127,-12.17177 z"
         style="opacity:1;fill:none;stroke:#000000;stroke-width:5.29167;stroke-linecap:square;stroke-linejoin:round;stroke-miterlimit:4;stroke-dasharray:none;paint-order:stroke fill markers"
         id="path2995-9-2-0-6-5"
         transform="matrix(3.7795276,0,0,3.7795276,-342.8572,-320.54302)" />
    </pattern>
  </defs>
  <metadata
     id="metadata2429">
    <rdf:RDF>
      <cc:Work
         rdf:about="">
        <dc:format>image/svg+xml</dc:format>
        <dc:type
           rdf:resource="http://purl.org/dc/dcmitype/StillImage" />
        <dc:title></dc:title>
      </cc:Work>
    </rdf:RDF>
  </metadata>
  <g
     transform="translate(82.229726,56.170077)"
     id="layer1">
    <rect
       id="rect4424"
       y="-212.29636"
       x="-310.78952"
       height="276.02133"
       width="318.72189"
       transform="scale(0.26458333)"
       style="fill:url(#pattern4421);stroke:none" />
  </g>
</svg>
