<?xml version="1.0" encoding="UTF-8"?>
<svg width="84.328mm" height="73.031mm" version="1.1" viewBox="0 0 84.328 73.031" xmlns="http://www.w3.org/2000/svg" xmlns:cc="http://creativecommons.org/ns#" xmlns:dc="http://purl.org/dc/elements/1.1/" xmlns:rdf="http://www.w3.org/1999/02/22-rdf-syntax-ns#">
 <defs>
  <clipPath id="clipPath3431-5">
   <rect x="90.714" y="84.81" width="84.328" height="73.031" fill="none" stroke="#f00" stroke-linecap="square" stroke-linejoin="round" stroke-width="5.2917" style="paint-order:stroke fill markers"/>
  </clipPath>
  <pattern id="hex" width="318.72189" height="276.02132" patternTransform="translate(-310.79 -212.3)" patternUnits="userSpaceOnUse">
   <path transform="matrix(3.7795 0 0 3.7795 -342.86 -320.54)" d="m175.04 60.467v24.344l-21.082 12.172-21.082-12.172v-24.344l21.082-12.172zm-42.164 0v24.344l-21.082 12.172-21.082-12.172v-24.344l21.082-12.172zm63.246 36.515v24.344l-21.082 12.172-21.082-12.172v-24.344l21.082-12.172zm-42.164 0v24.344l-21.082 12.172-21.082-12.172v-24.344l21.082-12.172zm-63.246-36.515v24.344l-21.082 12.172-21.082-12.172v-24.344l21.082-12.172zm-42.164 0v24.344l-21.082 12.172-21.082-12.172-1e-7 -24.344 21.082-12.172zm63.246 36.515v24.344l-21.082 12.172-21.082-12.172v-24.344l21.082-12.172zm-42.164 0v24.344l-21.082 12.172-21.082-12.172v-24.344l21.082-12.172zm147.57 36.515v24.344l-21.082 12.172-21.082-12.172v-24.344l21.082-12.172zm-42.164 0v24.344l-21.082 12.172-21.082-12.172v-24.344l21.082-12.172zm63.246 36.515v24.344l-21.082 12.172-21.082-12.172v-24.344l21.082-12.172zm-42.164 0v24.344l-21.082 12.172-21.082-12.172v-24.344l21.082-12.172zm-63.246-36.515v24.344l-21.082 12.172-21.082-12.172v-24.344l21.082-12.172zm-42.164 0v24.344l-21.082 12.172-21.082-12.172v-24.344l21.082-12.172zm63.246 36.515v24.344l-21.082 12.172-21.082-12.172v-24.344l21.082-12.172zm-42.164 0v24.344l-21.082 12.172-21.082-12.172v-24.344l21.082-12.172z" clip-path="url(#clipPath3431-5)" fill="none" stroke="#000" stroke-linecap="square" stroke-linejoin="round" stroke-width="5.2917" style="paint-order:stroke fill markers"/>
  </pattern>
 </defs>
</svg>
