<svg width="350" height="350" xmlns="http://www.w3.org/2000/svg"><path d="M92.55599999999998 12.763999999999996 92.375 12.944000000000003 89.84700000000001 12.944000000000003 89.667 13.125 87.31899999999999 13.125 87.13900000000001 13.305999999999997 85.15299999999999 13.305999999999997 84.97200000000001 13.486000000000004 83.52799999999999 13.486000000000004 83.34700000000001 13.667000000000002 81.542 13.667000000000002 81.36099999999999 13.846999999999994 79.19399999999999 13.846999999999994 79.01400000000001 14.028000000000006 78.47200000000001 14.028000000000006 78.292 13.846999999999994 77.208 13.846999999999994 77.02799999999999 14.028000000000006 76.48599999999999 14.028000000000006 76.30600000000001 14.207999999999998 74.68100000000001 14.207999999999998 74.5 14.388999999999996 73.417 14.388999999999996 73.23599999999999 14.569000000000003 72.15299999999999 14.569000000000003 71.97200000000001 14.75 70.88900000000001 14.75 70.708 14.930999999999997 69.26400000000001 14.930999999999997 69.083 15.111000000000004 68.0 15.111000000000004 67.81899999999999 15.292000000000002 67.09700000000001 15.292000000000002 66.917 15.471999999999994 65.65299999999999 15.471999999999994 65.65299999999999 15.653000000000006 65.47200000000001 15.832999999999998 64.93100000000001 15.832999999999998 64.75 16.013999999999996 64.38900000000001 16.013999999999996 64.208 16.194000000000003 63.84700000000001 16.194000000000003 63.48599999999999 16.555999999999997 62.94399999999999 16.555999999999997 62.76400000000001 16.736000000000004 61.86099999999999 16.736000000000004 61.68100000000001 16.917 61.31899999999999 16.917 61.13900000000001 17.096999999999994 60.958 17.096999999999994 60.77799999999999 17.278000000000006 60.417 17.278000000000006 60.23599999999999 17.458 59.875 17.458 59.69399999999999 17.638999999999996 59.51400000000001 17.638999999999996 59.333 17.819000000000003 59.15299999999999 17.819000000000003 58.97200000000001 18.0 58.792 18.0 58.61099999999999 18.180999999999997 58.25 18.180999999999997 58.06899999999999 18.361000000000004 57.88900000000001 18.361000000000004 57.708 18.542 57.167 18.542 56.98599999999999 18.721999999999994 56.80600000000001 18.721999999999994 56.625 18.903000000000006 56.44399999999999 18.903000000000006 56.26400000000001 19.083 56.083 19.083 55.90299999999999 19.263999999999996 55.542 19.263999999999996 55.36099999999999 19.444000000000003 54.81899999999999 19.444000000000003 54.63900000000001 19.625 54.09700000000001 19.625 53.917 19.805999999999997 52.833 19.805999999999997 52.47200000000001 20.167 52.292 20.167 52.11099999999999 19.986000000000004 51.56899999999999 19.986000000000004 51.38900000000001 19.805999999999997 51.02799999999999 19.805999999999997 50.84700000000001 19.625 50.48599999999999 19.625 50.30600000000001 19.444000000000003 50.125 19.444000000000003 49.94399999999999 19.263999999999996 49.76400000000001 19.263999999999996 49.40299999999999 18.903000000000006 49.22200000000001 18.903000000000006 49.042 18.721999999999994 48.68100000000001 18.721999999999994 48.5 18.542 48.13900000000001 18.542 47.958 18.361000000000004 47.958 18.180999999999997 47.417 18.180999999999997 47.23599999999999 18.0 47.05600000000001 18.0 46.875 17.819000000000003 46.51400000000001 17.819000000000003 46.15299999999999 17.458 45.61099999999999 17.458 45.43100000000001 17.278000000000006 45.06899999999999 17.278000000000006 44.88900000000001 17.096999999999994 44.52799999999999 17.096999999999994 44.34700000000001 16.917 43.44399999999999 16.917 43.26400000000001 16.736000000000004 38.75 16.736000000000004 38.56899999999999 16.917 37.30600000000001 16.917 37.125 17.096999999999994 36.76400000000001 17.096999999999994 36.583 17.278000000000006 36.40299999999999 17.278000000000006 36.22200000000001 17.458 35.5 17.458 35.31899999999999 17.638999999999996 35.13900000000001 17.638999999999996 34.958 17.819000000000003 34.77799999999999 17.819000000000003 34.59700000000001 18.0 34.417 18.0 34.23599999999999 18.180999999999997 34.05600000000001 18.180999999999997 33.69399999999999 18.542 33.333 18.542 33.15299999999999 18.721999999999994 32.97200000000001 18.721999999999994 32.25 19.444000000000003 32.06899999999999 19.444000000000003 30.98599999999999 20.528000000000006 30.98599999999999 20.708 30.44399999999999 21.25 30.44399999999999 21.430999999999997 29.90299999999999 21.971999999999994 29.90299999999999 22.153000000000006 29.72200000000001 22.333 29.542 22.333 29.542 22.694000000000003 29.36099999999999 22.875 29.18100000000001 22.875 29.18100000000001 23.236000000000004 29.0 23.417 29.0 23.596999999999994 28.81899999999999 23.778000000000006 28.81899999999999 24.680999999999997 28.63900000000001 24.861000000000004 28.63900000000001 26.125 28.458 26.305999999999997 28.458 32.986000000000004 28.63900000000001 33.167 28.63900000000001 34.792 28.81899999999999 34.971999999999994 28.81899999999999 36.236000000000004 29.0 36.417 29.0 37.5 29.18100000000001 37.681 29.18100000000001 37.861000000000004 29.36099999999999 38.042 29.36099999999999 38.403000000000006 29.542 38.583 29.542 38.763999999999996 29.90299999999999 39.125 29.90299999999999 39.306 30.44399999999999 39.846999999999994 30.44399999999999 40.028000000000006 30.625 40.208 30.625 40.388999999999996 30.80600000000001 40.569 30.80600000000001 40.931 30.98599999999999 41.111000000000004 30.98599999999999 41.471999999999994 31.167 41.653000000000006 31.167 42.194 31.34700000000001 42.375 31.34700000000001 42.736000000000004 31.52799999999999 42.917 31.52799999999999 43.096999999999994 32.06899999999999 43.638999999999996 32.06899999999999 43.819 32.792 44.542 32.792 44.721999999999994 33.15299999999999 45.083 33.15299999999999 45.263999999999996 33.333 45.444 33.333 45.986000000000004 33.51400000000001 46.167 33.51400000000001 46.346999999999994 33.69399999999999 46.528000000000006 33.69399999999999 46.708 33.875 46.888999999999996 33.875 47.431 34.05600000000001 47.611000000000004 34.05600000000001 48.153000000000006 34.23599999999999 48.333 34.23599999999999 48.513999999999996 34.417 48.694 34.417 49.417 34.59700000000001 49.596999999999994 34.59700000000001 51.403000000000006 34.77799999999999 51.583 34.77799999999999 53.569 34.59700000000001 53.75 34.59700000000001 55.01400000000001 34.417 55.19399999999999 34.417 55.917 34.23599999999999 56.09700000000001 34.23599999999999 57.18100000000001 34.05600000000001 57.36099999999999 34.05600000000001 57.90299999999999 33.875 58.083 33.875 60.25 33.69399999999999 60.43100000000001 33.69399999999999 61.333 33.51400000000001 61.51400000000001 33.51400000000001 67.47200000000001 33.333 67.65299999999999 33.333 72.167 33.51400000000001 72.34700000000001 33.51400000000001 75.05600000000001 33.69399999999999 75.23599999999999 33.69399999999999 75.958 33.875 76.13900000000001 33.875 77.042 34.05600000000001 77.22200000000001 34.05600000000001 77.94399999999999 34.23599999999999 78.125 34.23599999999999 78.667 34.59700000000001 79.02799999999999 34.59700000000001 79.38900000000001 34.77799999999999 79.56899999999999 34.77799999999999 79.75 34.958 79.93100000000001 34.958 80.292 35.13900000000001 80.47200000000001 35.13900000000001 80.65299999999999 35.31899999999999 80.833 35.31899999999999 81.01400000000001 35.5 81.19399999999999 35.5 81.375 35.68100000000001 81.55600000000001 35.68100000000001 82.27799999999999 35.86099999999999 82.458 35.86099999999999 83.0 36.042 83.18100000000001 36.042 83.90299999999999 36.22200000000001 84.083 36.22200000000001 84.625 36.40299999999999 84.80600000000001 36.40299999999999 85.34700000000001 36.76400000000001 85.708 36.76400000000001 85.88900000000001 36.94399999999999 86.06899999999999 36.94399999999999 86.43100000000001 37.125 86.61099999999999 37.125 86.792 37.30600000000001 86.97200000000001 37.30600000000001 87.15299999999999 37.667 87.51400000000001 37.667 87.69399999999999 37.84700000000001 87.875 37.84700000000001 88.05600000000001 38.208 88.417 38.208 89.13900000000001 38.38900000000001 89.31899999999999 38.38900000000001 90.042 38.56899999999999 90.22200000000001 38.56899999999999 90.76400000000001 38.75 90.94399999999999 38.75 91.48599999999999 39.11099999999999 91.84700000000001 39.11099999999999 92.38900000000001 39.292 92.56899999999999 39.292 92.75 39.65299999999999 93.11099999999999 39.65299999999999 93.292 39.833 93.47200000000001 39.833 93.65299999999999 40.01400000000001 93.833 40.01400000000001 94.01400000000001 40.19399999999999 94.19399999999999 40.19399999999999 94.375 40.375 94.55600000000001 40.375 94.73599999999999 40.55600000000001 94.917 40.55600000000001 95.458 40.73599999999999 95.63900000000001 40.73599999999999 96.18100000000001 40.917 96.36099999999999 40.917 97.083 41.09700000000001 97.26400000000001 41.09700000000001 97.98599999999999 41.27799999999999 98.167 41.27799999999999 98.88900000000001 41.458 99.06899999999999 41.458 99.25 41.63900000000001 99.43100000000001 41.63900000000001 99.61099999999999 41.81899999999999 99.792 41.81899999999999 99.97200000000001 42.0 100.15299999999999 42.0 100.333 42.18100000000001 100.51400000000001 42.18100000000001 100.69399999999999 42.36099999999999 100.875 42.36099999999999 101.05600000000001 42.542 101.23599999999999 42.542 101.417 42.90299999999999 101.77799999999999 42.90299999999999 102.5 43.083 102.68100000000001 43.083 103.22200000000001 43.26400000000001 103.40299999999999 43.26400000000001 103.76400000000001 43.44399999999999 103.94399999999999 43.44399999999999 104.48599999999999 43.625 104.667 43.625 105.02799999999999 44.167 105.56899999999999 44.167 105.93100000000001 44.34700000000001 106.11099999999999 44.34700000000001 106.292 44.52799999999999 106.292 44.708 106.47200000000001 44.708 106.65299999999999 45.06899999999999 107.01400000000001 45.06899999999999 107.19399999999999 45.43100000000001 107.55600000000001 45.43100000000001 107.917 45.61099999999999 108.09700000000001 45.61099999999999 108.81899999999999 45.792 109.0 45.792 109.18100000000001 45.97200000000001 109.36099999999999 45.97200000000001 109.72200000000001 46.15299999999999 109.90299999999999 46.15299999999999 110.083 46.51400000000001 110.44399999999999 46.51400000000001 110.625 46.69399999999999 110.625 46.875 110.80600000000001 46.875 110.98599999999999 47.23599999999999 111.34700000000001 47.23599999999999 111.52799999999999 47.59700000000001 111.88900000000001 47.59700000000001 112.06899999999999 47.77799999999999 112.25 47.77799999999999 112.43100000000001 47.958 112.61099999999999 47.958 113.15299999999999 48.13900000000001 113.333 48.13900000000001 113.51400000000001 48.31899999999999 113.69399999999999 48.31899999999999 113.875 48.5 114.05600000000001 48.5 114.77799999999999 49.40299999999999 115.68100000000001 49.40299999999999 116.042 49.94399999999999 116.583 49.94399999999999 116.94399999999999 50.125 117.125 50.125 117.48599999999999 50.30600000000001 117.667 50.30600000000001 118.208 50.48599999999999 118.38900000000001 50.48599999999999 118.93100000000001 50.667 119.11099999999999 50.667 120.19399999999999 50.84700000000001 120.375 50.84700000000001 121.27799999999999 51.02799999999999 121.458 51.02799999999999 121.81899999999999 51.208 122.0 51.208 122.542 51.38900000000001 122.72200000000001 51.38900000000001 123.083 51.56899999999999 123.26400000000001 51.56899999999999 123.625 51.75 123.80600000000001 51.75 124.167 51.93100000000001 124.34700000000001 51.93100000000001 124.52799999999999 52.11099999999999 124.708 52.11099999999999 125.06899999999999 52.292 125.25 52.292 125.97200000000001 52.47200000000001 126.15299999999999 52.47200000000001 126.51400000000001 52.65299999999999 126.69399999999999 52.65299999999999 127.77799999999999 52.833 127.958 52.833 129.042 53.01400000000001 129.222 53.01400000000001 130.847 53.19399999999999 131.028 53.19399999999999 131.389 53.375 131.569 53.375 131.931 53.55600000000001 132.111 53.55600000000001 132.292 53.73599999999999 132.472 53.73599999999999 133.014 54.27799999999999 133.556 54.27799999999999 134.278 54.458 134.458 54.458 134.639 54.63900000000001 134.819 54.63900000000001 135.181 54.81899999999999 135.361 54.81899999999999 135.903 55.0 136.083 55.0 137.528 55.18100000000001 137.708 55.18100000000001 145.472 55.0 145.653 55.0 154.139 54.81899999999999 154.319 54.81899999999999 156.847 55.0 157.028 55.0 158.292 55.18100000000001 158.472 55.18100000000001 164.972 55.36099999999999 165.153 55.36099999999999 165.694 55.18100000000001 165.875 55.18100000000001 166.056 55.36099999999999 166.236 55.36099999999999 166.778 55.542 166.958 55.542 168.042 55.72200000000001 168.222 55.72200000000001 168.583 55.542 168.764 55.542 171.292 55.72200000000001 171.472 55.72200000000001 172.194 55.90299999999999 172.375 55.90299999999999 173.458 56.083 173.639 56.083 174.181 56.26400000000001 174.361 56.26400000000001 174.903 56.44399999999999 175.083 56.44399999999999 175.444 56.625 175.625 56.625 176.167 56.80600000000001 176.347 56.80600000000001 176.708 56.98599999999999 176.889 56.98599999999999 177.792 57.167 177.972 57.167 179.417 57.34700000000001 179.597 57.34700000000001 181.042 57.52799999999999 181.222 57.52799999999999 182.125 57.708 182.306 57.708 183.75 57.88900000000001 183.93099999999998 57.88900000000001 187.72199999999998 58.06899999999999 187.90300000000002 58.06899999999999 190.79199999999997 58.25 190.97199999999998 58.25 192.05599999999998 58.43100000000001 192.236 58.43100000000001 193.31900000000002 58.61099999999999 193.5 58.61099999999999 194.22199999999998 58.792 194.40300000000002 58.792 195.30599999999998 58.97200000000001 195.486 58.97200000000001 196.56900000000002 59.15299999999999 196.75 59.15299999999999 197.83300000000003 59.333 198.014 59.333 199.27800000000002 59.51400000000001 199.45800000000003 59.51400000000001 200.90300000000002 59.69399999999999 201.08300000000003 59.69399999999999 201.625 59.875 201.80599999999998 59.875 203.79199999999997 60.05600000000001 203.97199999999998 60.05600000000001 204.69400000000002 59.875 204.875 59.875 205.05599999999998 60.05600000000001 205.236 60.05600000000001 206.5 60.23599999999999 206.68099999999998 60.23599999999999 207.40300000000002 60.417 207.58300000000003 60.417 208.84699999999998 60.59700000000001 209.02800000000002 60.59700000000001 210.29199999999997 60.77799999999999 210.47199999999998 60.77799999999999 211.736 60.958 211.91699999999997 60.958 213.18099999999998 61.13900000000001 213.361 61.13900000000001 213.54199999999997 61.31899999999999 213.72199999999998 61.31899999999999 214.625 61.5 214.80599999999998 61.5 215.889 61.68100000000001 216.06900000000002 61.68100000000001 217.514 61.86099999999999 217.69400000000002 61.86099999999999 218.236 62.042 218.41699999999997 62.042 220.22199999999998 62.22200000000001 220.40300000000002 62.22200000000001 221.125 62.40299999999999 221.30599999999998 62.40299999999999 221.84699999999998 62.583 222.02800000000002 62.583 223.29199999999997 62.76400000000001 223.47199999999998 62.76400000000001 224.014 62.94399999999999 224.19400000000002 62.94399999999999 225.45800000000003 63.125 225.639 63.125 226.72199999999998 63.30600000000001 226.90300000000002 63.30600000000001 227.625 63.48599999999999 227.80599999999998 63.48599999999999 228.34699999999998 63.667 228.52800000000002 63.667 229.611 63.84700000000001 229.79199999999997 63.84700000000001 231.236 64.02799999999999 231.41699999999997 64.02799999999999 231.95800000000003 64.208 232.139 64.208 233.04199999999997 64.38900000000001 233.22199999999998 64.38900000000001 233.94400000000002 64.56899999999999 234.125 64.56899999999999 235.20800000000003 64.75 235.389 64.75 236.83300000000003 64.93100000000001 237.014 64.93100000000001 237.736 65.11099999999999 237.91699999999997 65.11099999999999 238.639 65.292 238.81900000000002 65.292 239.361 65.47200000000001 239.54199999999997 65.47200000000001 240.08300000000003 65.65299999999999 240.264 65.65299999999999 240.625 65.833 240.80599999999998 65.833 241.16699999999997 66.01400000000001 241.34699999999998 66.01400000000001 241.889 66.19399999999999 242.06900000000002 66.19399999999999 242.43099999999998 66.375 242.611 66.375 243.15300000000002 66.55600000000001 243.33300000000003 66.55600000000001 244.236 66.73599999999999 244.41699999999997 66.73599999999999 246.04199999999997 66.917 246.22199999999998 66.917 247.30599999999998 67.09700000000001 247.486 67.09700000000001 248.93099999999998 67.27799999999999 249.111 67.27799999999999 249.47199999999998 67.09700000000001 249.65300000000002 67.09700000000001 250.014 67.27799999999999 250.19400000000002 67.27799999999999 251.09699999999998 67.458 251.27800000000002 67.458 252.18099999999998 67.63900000000001 252.361 67.63900000000001 253.08300000000003 67.81899999999999 253.264 67.81899999999999 253.80599999999998 68.0 253.986 68.0 254.34699999999998 68.18100000000001 254.52800000000002 68.18100000000001 255.06900000000002 68.36099999999999 255.25 68.36099999999999 255.79199999999997 68.542 255.97199999999998 68.542 256.333 68.72200000000001 256.514 68.72200000000001 257.056 68.90299999999999 257.236 68.90299999999999 257.958 69.083 258.139 69.083 258.681 69.26400000000001 258.861 69.26400000000001 259.764 69.44399999999999 259.944 69.44399999999999 260.486 69.625 260.667 69.625 261.75 69.80600000000001 261.931 69.80600000000001 262.292 69.98599999999999 262.472 69.98599999999999 263.194 70.167 263.375 70.167 263.736 70.34700000000001 263.917 70.34700000000001 264.278 70.52799999999999 264.458 70.52799999999999 264.639 70.708 264.819 70.708 265.181 70.88900000000001 265.361 70.88900000000001 265.542 71.06899999999999 265.722 71.06899999999999 265.903 71.43100000000001 266.264 71.43100000000001 266.806 71.61099999999999 266.986 71.61099999999999 267.347 71.792 267.528 71.792 268.431 71.97200000000001 268.611 71.97200000000001 269.514 72.15299999999999 269.694 72.15299999999999 270.417 72.333 270.597 72.333 271.5 72.51400000000001 271.681 72.51400000000001 272.042 72.69399999999999 272.222 72.69399999999999 272.403 72.875 272.583 72.875 272.764 73.05600000000001 272.944 73.05600000000001 273.306 73.417 273.667 73.417 274.208 73.59700000000001 274.389 73.59700000000001 274.569 73.77799999999999 274.75 73.77799999999999 275.653 73.958 275.833 73.958 276.556 74.13900000000001 276.736 74.13900000000001 277.639 74.31899999999999 277.819 74.31899999999999 278.903 74.5 279.083 74.5 279.806 74.68100000000001 279.986 74.68100000000001 280.528 74.86099999999999 280.708 74.86099999999999 281.611 75.042 281.792 75.042 281.972 75.22200000000001 282.153 75.22200000000001 282.514 75.40299999999999 282.694 75.40299999999999 283.056 75.583 283.236 75.583 283.597 75.94399999999999 283.958 75.94399999999999 284.861 76.125 285.042 76.125 286.125 76.30600000000001 286.306 76.30600000000001 287.028 76.48599999999999 287.208 76.48599999999999 287.931 76.667 288.111 76.667 289.014 76.84700000000001 289.194 76.84700000000001 290.278 77.208 290.639 77.208 290.819 77.38900000000001 291.0 77.38900000000001 291.542 77.56899999999999 291.722 77.56899999999999 292.083 77.75 292.264 77.75 292.444 77.93100000000001 292.625 77.93100000000001 292.986 78.11099999999999 293.167 78.11099999999999 293.528 78.292 293.708 78.292 294.069 78.47200000000001 294.25 78.47200000000001 294.792 78.65299999999999 294.972 78.65299999999999 295.514 78.833 295.694 78.833 296.236 79.01400000000001 296.417 79.01400000000001 296.958 79.19399999999999 297.139 79.19399999999999 297.5 79.375 297.681 79.375 298.222 79.55600000000001 298.403 79.55600000000001 298.764 79.73599999999999 298.944 79.73599999999999 299.667 80.09700000000001 300.028 80.09700000000001 300.389 80.27799999999999 300.569 80.27799999999999 300.931 80.63900000000001 301.292 80.63900000000001 301.472 80.81899999999999 301.653 80.81899999999999 301.833 81.0 302.014 81.0 302.194 81.18100000000001 302.375 81.18100000000001 302.736 81.36099999999999 302.917 81.36099999999999 303.278 81.542 303.458 81.542 304.722 81.90299999999999 305.083 81.90299999999999 306.347 82.083 306.528 82.083 307.25 82.26400000000001 307.431 82.26400000000001 308.153 82.44399999999999 308.333 82.44399999999999 311.583 82.26400000000001 311.764 82.26400000000001 312.125 82.083 312.306 82.083 313.028 81.542 313.569 81.542 313.75 81.18100000000001 314.111 81.18100000000001 314.653 80.81899999999999 315.014 80.63900000000001 315.014 80.63900000000001 315.194 80.458 315.375 80.458 315.556 79.917 316.097 79.917 316.278 79.375 316.819 79.01400000000001 316.819 78.65299999999999 317.181 78.65299999999999 317.542 77.75 318.444 77.56899999999999 318.444 77.38900000000001 318.625 77.208 318.625 77.208 318.806 77.02799999999999 318.986 76.48599999999999 318.986 76.48599999999999 319.167 76.30600000000001 319.347 76.30600000000001 319.528 75.94399999999999 319.889 75.76400000000001 319.889 75.76400000000001 320.25 75.583 320.431 75.40299999999999 320.431 75.40299999999999 320.792 74.86099999999999 321.333 74.5 321.333 74.31899999999999 321.514 74.31899999999999 321.694 74.13900000000001 321.875 73.77799999999999 321.875 73.77799999999999 322.236 73.05600000000001 322.958 72.875 322.958 72.69399999999999 323.139 72.51400000000001 323.139 71.97200000000001 323.681 71.792 323.681 71.61099999999999 323.861 71.43100000000001 323.861 71.43100000000001 324.042 71.25 324.222 71.06899999999999 324.222 70.88900000000001 324.403 70.88900000000001 324.764 70.52799999999999 325.125 70.52799999999999 325.486 70.167 325.847 69.98599999999999 325.847 69.98599999999999 326.028 69.80600000000001 326.208 69.625 326.208 69.625 326.389 69.44399999999999 326.569 69.44399999999999 326.75 69.26400000000001 326.931 69.26400000000001 327.472 68.90299999999999 327.833 68.90299999999999 329.819 69.083 330.0 69.083 330.361 68.90299999999999 330.542 68.72200000000001 330.542 68.72200000000001 330.903 68.542 331.083 68.36099999999999 331.083 68.36099999999999 331.625 68.542 331.806 68.542 333.069 68.72200000000001 333.25 68.72200000000001 333.611 68.90299999999999 333.792 68.90299999999999 334.333 69.26400000000001 334.694 69.26400000000001 334.875 69.625 335.236 69.98599999999999 335.236 70.167 335.417 70.167 335.597 70.34700000000001 335.597 70.52799999999999 335.778 70.708 335.778 71.06899999999999 336.139 71.25 336.139 71.43100000000001 336.319 71.792 336.319 71.97200000000001 336.5 72.333 336.5 72.51400000000001 336.681 72.69399999999999 336.681 72.875 336.861 73.77799999999999 336.861 73.958 337.042 74.13900000000001 337.042 74.31899999999999 337.222 75.583 337.222 75.76400000000001 337.403 77.02799999999999 337.403 77.208 337.583 79.73599999999999 337.583 79.917 337.403 81.542 337.403 81.72200000000001 337.222 83.88900000000001 337.222 84.06899999999999 337.042 85.333 337.042 85.51400000000001 336.861 86.77799999999999 336.861 86.958 336.681 88.76400000000001 336.681 88.94399999999999 336.5 92.73599999999999 336.5 92.91699999999997 336.319 94.36099999999999 336.319 94.54199999999997 336.5 95.08300000000003 336.5 95.26400000000001 336.319 97.97199999999998 336.319 98.15300000000002 336.139 99.77800000000002 336.139 99.95800000000003 335.958 102.125 335.958 102.30599999999998 335.778 102.48599999999999 335.778 102.66699999999997 335.958 102.84699999999998 335.958 103.02800000000002 335.778 103.20800000000003 335.778 103.38900000000001 335.958 104.29199999999997 335.958 104.47199999999998 335.778 107.90300000000002 335.778 108.08300000000003 335.597 109.88900000000001 335.597 110.06900000000002 335.417 110.97199999999998 335.417 111.15300000000002 335.236 111.33300000000003 335.236 111.51400000000001 335.056 112.41699999999997 335.056 112.59699999999998 334.875 113.86099999999999 334.875 114.04199999999997 334.694 115.125 334.694 115.30599999999998 334.514 116.38900000000001 334.514 116.56900000000002 334.333 118.01400000000001 334.333 118.19400000000002 334.153 118.73599999999999 334.153 118.91699999999997 333.972 120.72199999999998 333.972 120.90300000000002 333.792 122.52800000000002 333.792 122.70800000000003 333.611 124.15300000000002 333.611 124.33300000000003 333.431 126.31900000000002 333.431 126.5 333.25 127.04199999999997 333.25 127.22199999999998 333.069 128.66699999999997 333.069 128.84699999999998 332.889 130.47199999999998 332.889 130.65300000000002 332.708 131.55599999999998 332.708 131.736 332.528 132.27800000000002 332.528 132.45800000000003 332.347 132.639 332.347 132.81900000000002 332.167 133.361 332.167 133.54199999999997 331.986 133.72199999999998 331.986 133.72199999999998 331.806 133.90300000000002 331.625 134.08300000000003 331.625 134.264 331.444 134.264 331.264 134.44400000000002 331.083 134.44400000000002 330.903 134.08300000000003 330.542 134.08300000000003 329.639 133.90300000000002 329.639 133.72199999999998 329.458 133.72199999999998 329.278 133.54199999999997 329.097 133.361 329.097 132.639 328.375 132.639 328.194 132.45800000000003 328.194 132.27800000000002 328.014 132.27800000000002 327.833 132.09699999999998 327.653 132.09699999999998 327.292 131.91699999999997 327.111 131.91699999999997 326.931 131.736 326.75 131.736 326.389 131.55599999999998 326.208 131.55599999999998 326.028 131.375 325.847 131.375 325.667 131.19400000000002 325.486 131.19400000000002 324.944 131.014 324.764 131.014 324.403 130.83300000000003 324.222 130.83300000000003 324.042 130.65300000000002 323.861 130.65300000000002 323.681 130.47199999999998 323.5 130.47199999999998 323.319 130.29199999999997 323.139 130.29199999999997 322.778 130.111 322.597 130.111 322.417 129.93099999999998 322.236 129.93099999999998 321.875 129.75 321.694 129.75 321.153 129.56900000000002 320.972 129.56900000000002 319.347 129.389 319.167 129.389 315.194 129.20800000000003 315.014 129.20800000000003 314.472 129.389 314.292 129.389 314.111 129.20800000000003 313.931 129.20800000000003 309.056 129.02800000000002 308.875 129.02800000000002 307.972 128.84699999999998 307.792 128.84699999999998 307.431 128.66699999999997 307.25 128.66699999999997 306.889 128.486 306.708 128.486 306.528 128.30599999999998 306.347 128.30599999999998 306.167 128.125 305.986 128.125 305.806 127.76400000000001 305.444 127.76400000000001 305.083 127.58300000000003 304.903 127.58300000000003 304.722 127.40300000000002 304.542 127.40300000000002 303.819 127.22199999999998 303.639 127.22199999999998 302.194 127.04199999999997 302.014 127.04199999999997 300.931 126.86099999999999 300.75 126.86099999999999 293.347 127.04199999999997 293.167 127.04199999999997 290.819 127.22199999999998 290.639 127.22199999999998 288.833 127.40300000000002 288.653 127.40300000000002 287.75 127.58300000000003 287.569 127.58300000000003 287.028 127.76400000000001 286.847 127.76400000000001 285.944 127.94400000000002 285.764 127.94400000000002 284.681 128.125 284.5 128.125 283.597 128.30599999999998 283.417 128.30599999999998 283.056 128.486 282.875 128.486 282.514 128.66699999999997 282.333 128.66699999999997 282.153 128.84699999999998 281.972 128.84699999999998 281.069 129.02800000000002 280.889 129.02800000000002 280.347 129.20800000000003 280.167 129.20800000000003 278.0 129.389 277.819 129.389 276.556 129.56900000000002 276.375 129.56900000000002 273.847 129.75 273.667 129.75 272.042 129.93099999999998 271.861 129.93099999999998 271.319 130.111 271.139 130.111 269.694 130.29199999999997 269.514 130.29199999999997 268.972 130.47199999999998 268.792 130.47199999999998 268.25 130.65300000000002 268.069 130.65300000000002 267.347 130.83300000000003 267.167 130.83300000000003 266.444 131.014 266.264 131.014 266.083 131.19400000000002 265.903 131.19400000000002 265.0 131.375 264.819 131.375 264.639 131.55599999999998 264.458 131.55599999999998 264.278 131.736 264.097 131.736 263.014 131.91699999999997 262.833 131.91699999999997 262.472 132.09699999999998 262.292 132.09699999999998 261.75 132.27800000000002 261.569 132.27800000000002 261.028 132.45800000000003 260.847 132.45800000000003 260.486 132.81900000000002 260.125 132.81900000000002 259.222 133.0 259.042 133.0 258.861 133.18099999999998 258.681 133.18099999999998 255.79199999999997 133.361 255.611 133.54199999999997 255.611 133.54199999999997 253.44400000000002 133.72199999999998 253.264 133.72199999999998 252.0 133.54199999999997 251.81900000000002 133.54199999999997 251.27800000000002 133.72199999999998 251.09699999999998 133.72199999999998 250.19400000000002 133.54199999999997 250.014 133.54199999999997 247.66699999999997 133.361 247.486 133.361 246.764 133.18099999999998 246.58300000000003 133.18099999999998 245.861 133.0 245.68099999999998 133.0 245.31900000000002 132.81900000000002 245.139 132.81900000000002 243.875 133.0 243.69400000000002 133.0 242.43099999999998 133.54199999999997 241.889 133.90300000000002 241.889 134.625 242.611 134.80599999999998 242.611 135.34699999999998 243.15300000000002 135.70800000000003 243.15300000000002 136.06900000000002 243.514 136.25 243.514 136.97199999999998 244.236 137.15300000000002 244.236 137.33300000000003 244.41699999999997 137.33300000000003 244.59699999999998 137.514 244.59699999999998 137.69400000000002 244.77800000000002 137.875 244.77800000000002 138.05599999999998 244.95800000000003 138.236 244.95800000000003 138.41699999999997 244.77800000000002 138.59699999999998 244.77800000000002 138.77800000000002 244.95800000000003 139.139 244.95800000000003 139.31900000000002 245.139 139.31900000000002 245.31900000000002 139.861 245.31900000000002 140.04199999999997 245.5 140.40300000000002 245.5 140.764 245.861 141.486 245.861 141.66699999999997 245.68099999999998 142.20800000000003 245.68099999999998 142.56900000000002 246.04199999999997 143.29199999999997 246.04199999999997 143.47199999999998 246.22199999999998 143.47199999999998 246.40300000000002 144.375 246.40300000000002 144.736 246.764 145.09699999999998 246.764 145.27800000000002 246.94400000000002 145.45800000000003 246.94400000000002 145.639 247.125 145.81900000000002 247.125 146.0 247.30599999999998 146.18099999999998 247.30599999999998 146.54199999999997 247.66699999999997 147.44400000000002 247.66699999999997 148.16699999999997 248.389 148.34699999999998 248.389 148.70800000000003 248.75 148.889 248.75 149.06900000000002 248.93099999999998 149.611 248.93099999999998 150.15300000000002 249.47199999999998 150.15300000000002 249.65300000000002 150.875 250.375 150.875 252.54199999999997 150.69400000000002 252.72199999999998 150.69400000000002 252.90300000000002 150.514 253.08300000000003 150.514 253.44400000000002 149.97199999999998 253.986 149.97199999999998 254.16699999999997 149.79199999999997 254.34699999999998 149.79199999999997 254.52800000000002 149.611 254.70800000000003 149.611 254.889 149.43099999999998 255.06900000000002 149.43099999999998 255.43099999999998 149.25 255.611 149.25 255.97199999999998 149.06900000000002 256.153 149.06900000000002 256.875 148.889 257.056 148.889 257.417 148.70800000000003 257.597 148.70800000000003 257.778 148.34699999999998 258.139 148.34699999999998 258.319 147.44400000000002 259.222 147.44400000000002 259.583 147.08300000000003 259.944 147.08300000000003 260.125 146.90300000000002 260.306 146.90300000000002 261.028 146.72199999999998 261.208 146.72199999999998 261.569 146.54199999999997 261.75 146.54199999999997 261.931 146.361 262.111 146.361 262.292 146.18099999999998 262.472 146.18099999999998 262.653 146.0 262.833 146.0 263.014 145.81900000000002 263.194 145.81900000000002 263.375 145.45800000000003 263.736 145.27800000000002 263.736 145.09699999999998 263.917 145.09699999999998 264.097 144.736 264.458 144.736 264.639 144.55599999999998 264.819 144.55599999999998 265.361 144.375 265.542 144.375 265.722 144.19400000000002 265.903 144.19400000000002 266.444 144.014 266.625 144.014 266.986 143.83300000000003 267.167 143.83300000000003 267.347 143.65300000000002 267.528 143.65300000000002 267.708 143.47199999999998 267.889 143.47199999999998 268.069 143.111 268.431 143.111 268.611 142.93099999999998 268.792 142.93099999999998 268.972 142.75 269.153 142.75 269.333 142.56900000000002 269.514 142.56900000000002 269.694 142.389 269.875 142.389 270.056 142.20800000000003 270.236 142.20800000000003 270.958 142.02800000000002 271.139 142.02800000000002 271.861 141.84699999999998 272.042 141.84699999999998 272.944 141.66699999999997 273.125 141.66699999999997 273.306 141.486 273.486 141.486 273.847 141.30599999999998 274.028 141.30599999999998 274.389 141.125 274.569 141.125 274.75 140.94400000000002 274.931 140.94400000000002 275.111 140.764 275.292 140.764 275.472 140.58300000000003 275.653 140.58300000000003 275.833 140.40300000000002 276.014 140.40300000000002 276.194 140.22199999999998 276.375 140.22199999999998 276.736 140.04199999999997 276.917 140.04199999999997 277.097 139.861 277.278 139.861 277.458 139.68099999999998 277.639 139.68099999999998 278.722 139.5 278.903 139.5 279.625 139.31900000000002 279.806 139.31900000000002 280.708 139.139 280.889 139.139 281.069 138.95800000000003 281.25 138.95800000000003 281.431 138.77800000000002 281.611 138.77800000000002 281.972 138.236 282.514 138.236 282.694 138.05599999999998 282.875 138.05599999999998 283.236 137.69400000000002 283.597 137.69400000000002 283.958 137.514 284.139 137.514 284.681 137.33300000000003 284.861 137.33300000000003 285.583 137.15300000000002 285.764 137.15300000000002 287.028 136.97199999999998 287.208 136.97199999999998 287.75 136.79199999999997 287.931 136.79199999999997 288.833 136.611 289.014 136.611 289.375 136.43099999999998 289.556 136.43099999999998 289.917 136.25 290.097 136.06900000000002 290.097 136.06900000000002 290.278 135.889 290.458 135.889 290.639 135.70800000000003 290.819 135.70800000000003 291.0 135.52800000000002 291.181 135.52800000000002 291.542 135.34699999999998 291.722 135.34699999999998 292.264 135.16699999999997 292.444 135.16699999999997 293.347 134.986 293.528 134.986 295.153 134.80599999999998 295.333 134.80599999999998 297.319 134.625 297.5 134.625 304.361 134.44400000000002 304.542 134.44400000000002 304.722 134.625 304.903 134.625 307.972 134.80599999999998 308.153 134.80599999999998 311.403 134.986 311.583 134.986 311.944 135.16699999999997 312.125 135.16699999999997 312.847 135.34699999999998 313.028 135.34699999999998 313.208 135.52800000000002 313.389 135.52800000000002 313.75 135.889 314.111 135.889 314.292 136.06900000000002 314.472 136.06900000000002 314.833 136.25 315.014 136.25 315.375 136.43099999999998 315.556 136.43099999999998 316.097 136.611 316.278 136.611 318.986 136.79199999999997 319.167 136.79199999999997 320.792 136.97199999999998 320.972 136.97199999999998 321.514 137.15300000000002 321.514 137.33300000000003 321.694 137.33300000000003 322.236 137.514 322.417 137.514 322.597 138.77800000000002 323.861 138.77800000000002 324.042 139.31900000000002 324.583 139.31900000000002 324.944 139.5 325.125 139.5 325.306 139.68099999999998 325.486 139.68099999999998 325.667 140.04199999999997 326.028 140.04199999999997 326.208 140.40300000000002 326.569 140.40300000000002 326.75 140.58300000000003 326.75 141.125 327.292 141.125 327.472 141.30599999999998 327.653 141.30599999999998 327.833 141.486 328.014 141.486 328.556 141.30599999999998 328.736 141.30599999999998 329.278 141.486 329.458 141.486 330.181 142.02800000000002 330.181 142.20800000000003 330.361 142.20800000000003 330.542 142.75 330.542 142.93099999999998 330.722 143.83300000000003 330.722 144.014 330.903 144.19400000000002 330.903 144.375 331.083 145.27800000000002 331.083 145.45800000000003 331.264 145.81900000000002 331.264 146.0 331.444 146.0 331.625 146.18099999999998 331.625 146.361 331.444 146.72199999999998 331.444 146.90300000000002 331.625 147.44400000000002 331.625 147.625 331.806 148.34699999999998 331.806 148.52800000000002 331.986 149.97199999999998 331.986 150.15300000000002 332.167 150.69400000000002 332.167 150.875 332.347 152.68099999999998 332.347 152.861 332.528 153.22199999999998 332.528 153.40300000000002 332.347 153.58300000000003 332.347 153.764 332.528 156.65300000000002 332.528 156.83300000000003 332.708 166.22199999999998 332.708 166.40300000000002 332.528 166.58300000000003 332.528 166.764 332.708 166.94400000000002 332.708 167.125 332.528 167.84699999999998 332.528 167.84699999999998 332.347 168.02800000000002 332.167 168.75 332.167 168.93099999999998 331.986 169.65300000000002 331.986 169.83300000000003 331.806 170.014 331.806 170.19400000000002 331.625 170.736 331.625 170.91699999999997 331.444 171.09699999999998 331.444 171.27800000000002 331.264 171.81900000000002 331.264 172.18099999999998 330.903 172.361 330.903 172.54199999999997 330.722 172.72199999999998 330.722 173.44400000000002 330.0 173.625 330.0 174.16699999999997 329.458 174.34699999999998 329.458 174.52800000000002 329.278 174.70800000000003 329.278 176.69400000000002 327.292 176.875 327.292 177.236 326.931 177.41699999999997 326.931 177.59699999999998 326.75 177.59699999999998 326.389 177.95800000000003 326.028 177.95800000000003 325.847 179.764 324.042 179.94400000000002 324.042 180.486 323.5 180.486 323.319 181.389 322.417 181.75 322.417 182.29199999999997 321.875 182.29199999999997 321.694 182.47199999999998 321.514 182.65300000000002 321.514 182.65300000000002 321.333 182.83300000000003 321.153 182.83300000000003 320.972 183.55599999999998 320.25 183.736 320.25 183.91699999999997 320.069 183.91699999999997 319.889 184.639 319.167 184.639 318.806 184.81900000000002 318.625 184.81900000000002 318.264 185.0 318.083 185.0 317.903 185.18099999999998 317.722 185.18099999999998 317.361 185.54199999999997 317.0 185.54199999999997 316.458 186.264 315.736 186.264 315.375 186.44400000000002 315.194 186.44400000000002 315.014 186.625 314.833 186.625 314.472 186.986 314.111 186.986 313.75 187.16699999999997 313.569 187.16699999999997 313.208 187.34699999999998 313.028 187.34699999999998 312.667 187.70800000000003 312.306 187.70800000000003 312.125 187.889 311.944 187.889 311.764 188.79199999999997 310.861 188.79199999999997 310.681 189.15300000000002 310.319 189.15300000000002 309.958 189.33300000000003 309.778 189.33300000000003 309.597 189.69400000000002 309.236 189.69400000000002 309.056 189.875 308.875 189.875 308.333 191.31900000000002 306.889 191.31900000000002 306.708 191.5 306.528 191.5 306.347 191.68099999999998 306.167 191.68099999999998 305.986 192.04199999999997 305.625 192.04199999999997 305.083 192.22199999999998 304.903 192.22199999999998 304.722 192.40300000000002 304.542 192.40300000000002 304.181 192.764 303.819 192.764 303.639 194.02800000000002 302.375 194.02800000000002 302.194 194.20800000000003 302.014 194.20800000000003 301.472 194.389 301.292 194.389 300.75 194.56900000000002 300.569 194.56900000000002 300.389 194.75 300.208 194.75 300.028 194.93099999999998 299.847 194.93099999999998 298.944 195.111 298.764 195.111 297.861 195.29199999999997 297.681 195.29199999999997 296.958 195.111 296.778 195.111 296.056 195.29199999999997 295.875 195.29199999999997 295.694 195.111 295.514 195.111 294.431 195.29199999999997 294.25 195.29199999999997 293.889 195.47199999999998 293.708 195.47199999999998 293.347 195.65300000000002 293.167 195.65300000000002 292.625 195.83300000000003 292.444 195.83300000000003 292.083 196.014 291.903 196.014 291.722 196.19400000000002 291.542 196.19400000000002 291.361 196.375 291.181 196.375 290.639 196.55599999999998 290.458 196.55599999999998 290.278 196.736 290.097 196.736 289.917 196.91699999999997 289.736 196.91699999999997 289.194 197.09699999999998 289.014 197.09699999999998 288.653 197.27800000000002 288.472 197.27800000000002 288.111 197.45800000000003 287.931 197.45800000000003 287.75 197.639 287.569 197.639 287.389 198.0 287.028 198.0 286.847 198.18099999999998 286.667 198.54199999999997 286.667 198.54199999999997 286.486 198.72199999999998 286.306 198.72199999999998 286.125 199.08300000000003 285.764 199.08300000000003 285.403 199.264 285.222 199.264 285.042 199.44400000000002 284.861 199.44400000000002 284.681 199.625 284.5 199.625 284.139 200.34699999999998 283.417 200.52800000000002 283.417 200.52800000000002 283.236 201.43099999999998 282.333 201.43099999999998 282.153 201.79199999999997 281.792 201.79199999999997 281.611 202.33300000000003 281.069 202.33300000000003 280.889 202.514 280.708 202.69400000000002 280.708 203.95800000000003 279.444 203.95800000000003 279.264 204.31900000000002 278.903 204.31900000000002 278.722 204.5 278.542 204.5 278.361 204.68099999999998 278.181 204.861 278.181 205.58300000000003 277.458 205.764 277.458 206.125 277.097 206.125 276.917 206.30599999999998 276.736 206.30599999999998 276.556 206.486 276.375 206.486 276.194 206.84699999999998 275.833 206.84699999999998 275.653 207.20800000000003 275.292 207.20800000000003 275.111 208.111 274.208 208.29199999999997 274.208 208.29199999999997 274.028 208.47199999999998 273.847 208.65300000000002 273.847 208.65300000000002 273.306 208.83300000000003 273.125 208.83300000000003 272.944 209.014 272.764 209.014 272.583 209.19400000000002 272.403 209.19400000000002 272.222 209.375 272.042 209.375 271.861 209.736 271.5 209.736 271.319 210.27800000000002 270.778 210.27800000000002 270.597 210.45800000000003 270.417 210.45800000000003 270.236 211.0 269.694 211.0 269.514 211.18099999999998 269.333 211.18099999999998 268.611 211.361 268.431 211.361 268.25 211.54199999999997 268.069 211.54199999999997 267.167 211.72199999999998 266.986 211.72199999999998 266.444 211.90300000000002 266.264 211.90300000000002 266.083 212.08300000000003 265.903 212.08300000000003 265.361 212.264 265.181 212.264 264.819 212.625 264.458 212.625 264.097 212.986 263.736 212.986 263.375 213.16699999999997 263.194 213.16699999999997 263.014 213.34699999999998 262.833 213.34699999999998 262.472 213.70800000000003 262.111 213.70800000000003 261.75 213.889 261.569 213.889 261.028 214.06900000000002 260.847 214.06900000000002 260.667 214.79199999999997 259.944 214.97199999999998 259.944 215.875 260.847 215.875 261.028 216.05599999999998 261.208 216.05599999999998 261.389 216.236 261.569 216.236 262.292 216.41699999999997 262.472 216.41699999999997 262.833 216.59699999999998 263.014 216.59699999999998 263.736 216.77800000000002 263.917 216.77800000000002 264.458 216.95800000000003 264.639 216.95800000000003 265.181 217.139 265.361 217.139 265.542 217.31900000000002 265.722 217.31900000000002 265.903 217.68099999999998 266.264 217.68099999999998 266.444 218.04199999999997 266.806 218.04199999999997 266.986 218.22199999999998 267.167 218.22199999999998 267.347 218.40300000000002 267.528 218.40300000000002 267.708 218.58300000000003 267.889 218.58300000000003 268.069 218.764 268.25 218.764 268.431 218.94400000000002 268.611 218.94400000000002 269.153 219.125 269.333 219.125 269.694 219.30599999999998 269.875 219.30599999999998 270.236 219.486 270.417 219.486 270.597 219.84699999999998 270.958 219.84699999999998 271.139 220.20800000000003 271.5 220.20800000000003 271.681 220.56900000000002 272.042 220.56900000000002 272.222 220.93099999999998 272.583 220.93099999999998 272.764 221.111 272.944 221.111 273.306 221.29199999999997 273.486 221.29199999999997 273.847 221.47199999999998 274.028 221.47199999999998 274.208 221.65300000000002 274.389 221.65300000000002 274.75 221.83300000000003 274.931 221.83300000000003 275.111 222.014 275.292 222.014 275.472 222.375 275.833 222.375 276.014 222.55599999999998 276.194 222.55599999999998 276.375 223.09699999999998 276.917 223.09699999999998 277.097 223.27800000000002 277.278 223.27800000000002 277.458 223.45800000000003 277.639 223.45800000000003 277.819 223.639 278.0 223.639 278.181 223.81900000000002 278.361 223.81900000000002 278.903 224.0 279.083 224.0 279.444 224.18099999999998 279.625 224.18099999999998 279.986 224.361 280.167 224.361 280.347 224.54199999999997 280.528 224.54199999999997 280.708 225.08300000000003 281.25 225.08300000000003 281.431 225.44400000000002 281.792 225.44400000000002 281.972 225.625 282.153 225.625 282.333 225.986 282.694 225.986 282.875 226.16699999999997 283.056 226.16699999999997 283.778 226.34699999999998 283.958 226.34699999999998 284.139 226.52800000000002 284.319 226.52800000000002 284.5 226.70800000000003 284.681 226.70800000000003 284.861 226.889 285.042 226.889 285.222 227.06900000000002 285.403 227.25 285.403 227.43099999999998 285.583 227.43099999999998 285.944 227.79199999999997 286.306 227.79199999999997 286.486 227.97199999999998 286.667 227.97199999999998 286.847 228.33300000000003 287.208 228.33300000000003 287.389 228.514 287.569 228.514 287.931 228.69400000000002 288.111 228.69400000000002 288.292 228.875 288.472 228.875 288.833 229.05599999999998 289.014 229.05599999999998 289.194 229.236 289.375 229.236 289.556 229.41699999999997 289.736 229.41699999999997 289.917 229.59699999999998 290.097 229.77800000000002 290.097 229.95800000000003 290.278 229.95800000000003 290.458 230.5 291.0 230.5 291.181 230.68099999999998 291.361 230.68099999999998 291.542 231.04199999999997 291.903 231.04199999999997 292.083 231.22199999999998 292.264 231.22199999999998 292.625 231.40300000000002 292.806 231.40300000000002 292.986 231.764 293.347 231.764 293.528 232.125 293.889 232.125 294.069 232.30599999999998 294.25 232.30599999999998 294.431 232.486 294.611 232.486 294.792 232.84699999999998 295.153 232.84699999999998 295.514 233.02800000000002 295.694 233.02800000000002 296.417 233.20800000000003 296.597 233.20800000000003 296.778 233.389 296.958 233.389 297.681 233.56900000000002 297.861 233.56900000000002 298.944 233.75 299.125 233.75 300.75 233.93099999999998 300.931 233.93099999999998 304.0 233.75 304.181 233.75 304.903 233.56900000000002 305.083 233.56900000000002 305.264 233.389 305.444 233.389 306.167 233.20800000000003 306.347 233.20800000000003 306.528 232.84699999999998 306.889 232.84699999999998 307.25 232.66699999999997 307.431 232.66699999999997 307.611 232.125 308.153 232.125 308.333 231.94400000000002 308.514 231.94400000000002 308.694 231.764 308.875 231.58300000000003 308.875 231.40300000000002 309.056 231.40300000000002 309.236 230.5 310.139 230.5 310.319 230.31900000000002 310.5 230.139 310.5 229.95800000000003 310.681 229.95800000000003 310.861 229.59699999999998 311.222 229.41699999999997 311.222 229.05599999999998 311.583 229.05599999999998 311.764 228.875 311.944 228.69400000000002 311.944 228.69400000000002 312.306 228.514 312.486 228.514 312.667 228.33300000000003 312.847 228.33300000000003 313.028 227.43099999999998 313.931 227.43099999999998 314.111 226.52800000000002 315.014 226.34699999999998 315.014 226.34699999999998 315.194 225.264 316.278 225.08300000000003 316.278 224.90300000000002 316.458 224.72199999999998 316.458 224.18099999999998 317.0 224.0 317.0 223.81900000000002 317.181 223.639 317.181 223.27800000000002 317.542 223.09699999999998 317.542 223.09699999999998 317.722 222.91699999999997 317.903 222.736 317.903 222.375 318.264 222.19400000000002 318.264 221.65300000000002 318.806 221.47199999999998 318.806 220.93099999999998 319.347 220.75 319.347 220.389 319.708 220.20800000000003 319.708 219.84699999999998 320.069 219.66699999999997 320.069 219.486 320.25 219.486 320.431 219.125 320.792 218.764 320.792 218.764 320.972 218.58300000000003 321.153 218.40300000000002 321.153 217.31900000000002 322.236 217.139 322.236 216.59699999999998 322.778 216.41699999999997 322.778 215.875 323.319 215.69400000000002 323.319 214.611 324.403 214.43099999999998 324.403 214.43099999999998 324.583 214.06900000000002 324.944 214.06900000000002 325.125 213.889 325.306 213.889 325.667 214.06900000000002 325.847 214.06900000000002 326.208 214.43099999999998 326.569 214.43099999999998 326.931 214.79199999999997 327.292 214.97199999999998 327.292 215.15300000000002 327.472 215.514 327.472 215.69400000000002 327.653 216.05599999999998 327.653 216.236 327.833 216.59699999999998 327.833 216.77800000000002 328.014 218.04199999999997 328.014 218.22199999999998 328.194 220.02800000000002 328.194 220.20800000000003 328.014 222.736 328.014 222.91699999999997 327.833 223.09699999999998 327.833 223.27800000000002 328.014 223.639 328.014 223.81900000000002 327.833 226.34699999999998 327.833 226.52800000000002 327.653 232.125 327.653 232.30599999999998 327.833 232.66699999999997 327.833 232.84699999999998 327.653 232.84699999999998 327.292 233.02800000000002 327.111 233.389 327.111 233.56900000000002 327.292 233.56900000000002 327.653 234.29199999999997 327.653 234.47199999999998 327.472 235.736 327.472 235.91699999999997 327.292 236.45800000000003 327.292 236.639 327.111 237.54199999999997 327.111 237.72199999999998 326.931 238.44400000000002 326.931 238.625 326.75 238.80599999999998 326.75 238.986 326.931 239.16699999999997 326.931 239.34699999999998 326.75 240.06900000000002 326.75 240.25 326.931 240.97199999999998 326.931 241.15300000000002 326.75 241.33300000000003 326.75 241.514 326.569 242.77800000000002 326.569 243.139 326.208 243.31900000000002 326.208 243.5 326.389 243.5 326.569 243.31900000000002 326.75 243.31900000000002 326.931 243.861 326.931 244.04199999999997 326.75 244.22199999999998 326.75 244.40300000000002 326.931 247.65300000000002 326.931 247.83300000000003 327.111 249.27800000000002 327.111 249.639 326.75 250.18099999999998 326.75 250.361 326.569 251.264 326.569 251.44400000000002 326.75 251.44400000000002 326.931 251.986 326.931 252.16699999999997 326.75 252.34699999999998 326.75 252.52800000000002 326.569 253.25 326.569 253.43099999999998 326.75 253.79199999999997 326.75 253.97199999999998 326.569 255.77800000000002 326.569 255.95800000000003 326.389 264.083 326.389 264.264 326.208 281.236 326.208 281.417 326.389 281.958 326.389 282.139 326.208 284.847 326.208 285.028 326.028 285.75 326.028 285.931 325.847 286.653 325.847 286.833 325.667 287.194 325.667 287.375 325.486 287.556 325.486 287.736 325.306 287.917 325.306 288.278 324.944 288.639 324.944 288.819 324.764 289.0 324.764 289.181 324.583 289.361 324.583 289.542 324.403 289.722 324.403 290.083 324.042 290.264 324.042 290.806 323.5 290.986 323.5 290.986 323.319 291.167 323.139 291.167 322.778 291.347 322.597 291.347 322.417 291.528 322.236 291.528 321.694 291.708 321.514 291.708 317.903 291.528 317.722 291.528 313.389 291.347 313.208 291.347 311.042 291.167 310.861 291.167 309.958 290.986 309.778 290.986 308.153 290.806 307.972 290.806 306.889 290.625 306.708 290.625 305.625 290.444 305.444 290.444 304.903 290.264 304.722 290.264 301.111 290.444 300.931 290.444 299.486 290.625 299.306 290.625 298.583 290.806 298.403 290.806 297.319 290.625 297.139 290.625 296.958 290.444 296.778 290.444 296.417 290.625 296.236 290.986 296.236 291.167 296.056 291.167 295.153 291.347 294.972 291.347 294.25 291.528 294.069 291.708 294.069 291.708 293.347 291.889 293.167 291.889 292.986 292.069 292.806 292.069 292.625 292.25 292.444 292.25 292.264 292.611 291.903 292.611 291.542 292.792 291.361 292.792 290.639 292.972 290.458 292.972 289.556 293.153 289.375 293.153 288.833 293.333 288.653 293.333 287.931 293.514 287.75 293.514 287.569 293.333 287.389 293.333 287.028 293.514 286.847 293.514 286.486 293.694 286.306 293.694 285.764 293.875 285.583 293.875 284.861 294.056 284.681 294.056 284.139 294.236 283.958 294.236 283.778 294.417 283.597 294.417 283.417 294.597 283.236 294.597 283.056 294.778 282.875 294.958 282.875 294.958 281.972 295.139 281.792 295.139 281.431 295.319 281.25 295.319 280.528 295.5 280.347 295.5 279.444 295.681 279.264 295.681 278.722 295.861 278.542 295.861 278.0 296.042 277.819 296.042 277.097 296.222 276.917 296.222 276.194 296.583 275.833 296.583 275.472 296.764 275.292 296.764 275.111 296.944 274.931 296.944 274.75 297.125 274.569 297.125 274.389 297.667 273.847 297.667 273.667 297.847 273.486 297.847 272.583 298.028 272.403 298.028 272.222 298.208 272.042 298.208 270.958 298.389 270.778 298.389 270.056 298.569 269.875 298.569 269.694 298.75 269.514 298.75 268.972 298.931 268.792 298.931 268.25 299.111 268.069 299.111 267.889 299.292 267.708 299.292 267.528 299.472 267.347 299.472 267.167 299.653 266.986 299.653 266.444 299.833 266.264 299.833 265.903 300.014 265.722 300.014 265.361 300.194 265.181 300.194 264.639 300.375 264.458 300.375 263.556 300.556 263.375 300.556 263.014 300.736 262.833 300.736 261.931 300.917 261.75 300.917 261.569 301.097 261.389 301.097 260.847 301.278 260.667 301.278 260.306 301.458 260.125 301.458 259.944 301.819 259.583 301.819 259.403 302.181 259.042 302.181 258.5 302.361 258.319 302.361 258.139 302.542 257.958 302.542 257.236 302.722 257.056 302.722 256.514 302.903 256.333 302.903 255.611 303.083 255.43099999999998 303.083 255.06900000000002 303.264 254.889 303.264 254.34699999999998 303.444 254.16699999999997 303.444 253.80599999999998 303.986 253.264 303.986 252.90300000000002 304.347 252.54199999999997 304.347 252.361 304.528 252.18099999999998 304.528 252.0 304.708 251.81900000000002 304.708 251.639 305.069 251.27800000000002 305.069 250.375 305.25 250.19400000000002 305.25 250.014 305.431 249.83300000000003 305.431 248.93099999999998 305.611 248.75 305.611 248.389 305.792 248.20800000000003 305.792 247.66699999999997 305.972 247.486 305.972 247.125 306.153 246.94400000000002 306.153 246.764 306.333 246.58300000000003 306.333 246.22199999999998 306.514 246.04199999999997 306.514 245.861 306.694 245.68099999999998 306.694 245.139 306.875 244.95800000000003 306.875 244.77800000000002 307.056 244.59699999999998 307.056 244.41699999999997 307.236 244.236 307.236 243.69400000000002 307.417 243.514 307.417 243.33300000000003 307.597 243.15300000000002 307.597 242.25 307.778 242.06900000000002 307.778 241.70800000000003 307.958 241.52800000000002 307.958 240.80599999999998 308.139 240.625 308.139 240.08300000000003 308.319 239.90300000000002 308.319 239.0 308.5 238.81900000000002 308.5 238.45800000000003 308.681 238.27800000000002 308.681 237.91699999999997 308.861 237.736 308.861 237.55599999999998 309.042 237.375 309.042 236.83300000000003 309.403 236.47199999999998 309.403 236.111 309.583 235.93099999999998 309.583 235.75 309.764 235.56900000000002 309.764 235.02800000000002 309.944 234.84699999999998 309.944 234.486 310.125 234.30599999999998 310.125 233.764 310.306 233.58300000000003 310.306 233.22199999999998 310.486 233.04199999999997 310.486 232.5 310.667 232.31900000000002 310.667 231.77800000000002 310.847 231.59699999999998 310.847 231.41699999999997 311.028 231.236 311.028 231.05599999999998 311.208 230.875 311.208 230.69400000000002 311.389 230.514 311.389 229.97199999999998 311.75 229.611 311.75 229.25 311.931 229.06900000000002 311.931 228.52800000000002 312.111 228.34699999999998 312.111 227.625 312.292 227.44400000000002 312.292 226.90300000000002 312.472 226.72199999999998 312.472 225.639 312.653 225.45800000000003 312.653 224.014 312.833 223.83300000000003 312.833 222.93099999999998 313.014 222.75 313.014 222.389 313.194 222.20800000000003 313.194 222.02800000000002 313.375 221.84699999999998 313.375 221.66699999999997 313.736 221.30599999999998 313.736 220.94400000000002 313.917 220.764 314.097 220.764 314.097 220.58300000000003 314.278 220.40300000000002 314.278 220.22199999999998 314.819 219.68099999999998 314.819 219.139 315.0 218.95800000000003 315.0 218.59699999999998 315.181 218.41699999999997 315.181 218.05599999999998 315.361 217.875 315.361 217.15300000000002 315.542 216.97199999999998 315.542 216.611 315.722 216.43099999999998 315.722 216.06900000000002 315.903 215.889 315.903 215.52800000000002 316.083 215.34699999999998 316.083 215.16699999999997 316.264 214.986 316.264 214.80599999999998 316.444 214.625 316.444 214.44400000000002 316.625 214.264 316.625 213.90300000000002 316.806 213.72199999999998 316.806 213.361 316.986 213.18099999999998 316.986 212.81900000000002 317.167 212.639 317.167 211.91699999999997 317.347 211.736 317.347 211.014 317.528 210.83300000000003 317.528 210.29199999999997 317.708 210.111 317.708 209.56900000000002 317.889 209.389 317.889 209.02800000000002 318.069 208.84699999999998 318.069 208.486 318.431 208.125 318.431 207.764 318.792 207.40300000000002 318.792 207.22199999999998 318.972 207.04199999999997 318.972 206.861 319.333 206.5 319.333 205.77800000000002 319.514 205.59699999999998 319.514 205.236 319.694 205.05599999999998 319.694 204.33300000000003 319.875 204.15300000000002 319.875 202.889 320.056 202.70800000000003 320.056 202.34699999999998 320.236 202.16699999999997 320.236 201.44400000000002 320.417 201.264 320.417 200.72199999999998 320.597 200.54199999999997 320.597 200.361 320.778 200.18099999999998 320.778 199.639 320.958 199.45800000000003 320.958 199.27800000000002 321.139 199.09699999999998 321.139 198.91699999999997 321.319 198.736 321.319 198.19400000000002 321.5 198.014 321.5 197.65300000000002 321.681 197.47199999999998 321.681 197.111 321.861 196.93099999999998 321.861 196.56900000000002 322.042 196.389 322.042 195.125 322.222 194.94400000000002 322.222 194.40300000000002 322.403 194.22199999999998 322.403 193.5 322.583 193.31900000000002 322.583 192.95800000000003 322.764 192.77800000000002 322.764 192.236 322.944 192.05599999999998 322.944 191.69400000000002 323.125 191.514 323.125 191.33300000000003 323.306 191.15300000000002 323.306 190.97199999999998 323.486 190.79199999999997 323.486 190.43099999999998 323.667 190.25 323.667 190.06900000000002 323.847 189.889 323.847 189.52800000000002 324.028 189.34699999999998 324.028 188.80599999999998 324.208 188.625 324.208 187.72199999999998 324.389 187.54199999999997 324.389 185.55599999999998 324.569 185.375 324.569 181.583 324.75 181.403 324.75 179.778 324.931 179.597 324.931 178.333 325.111 178.153 325.111 177.611 325.292 177.431 325.292 176.889 325.472 176.708 325.472 176.347 325.653 176.167 325.653 174.903 325.833 174.722 325.833 174.0 326.014 173.819 326.014 172.556 326.194 172.375 326.194 171.111 326.375 170.931 326.375 169.486 326.556 169.306 326.556 167.681 326.375 167.5 326.375 166.417 326.556 166.236 326.556 165.153 326.736 164.972 326.736 164.792 326.556 164.611 326.556 163.528 326.375 163.347 326.375 162.625 326.194 162.444 326.194 161.0 326.014 160.819 326.014 160.458 325.833 160.278 325.833 159.917 325.653 159.736 325.653 159.194 325.472 159.014 325.472 158.653 325.292 158.472 325.292 158.111 325.111 157.931 325.111 157.208 324.931 157.028 324.931 156.306 324.75 156.125 324.75 155.222 324.569 155.042 324.569 153.778 324.389 153.597 324.389 152.875 324.208 152.694 324.208 150.889 324.028 150.708 324.028 150.347 323.847 150.167 323.847 149.806 323.486 149.444 323.486 148.903 323.306 148.722 323.306 148.181 323.125 148.0 323.125 147.819 322.944 147.639 322.944 147.097 322.764 146.917 322.764 146.375 322.583 146.194 322.583 146.014 322.403 145.833 322.403 145.111 322.222 144.931 322.222 143.847 322.042 143.667 322.042 141.319 321.861 141.139 321.861 139.514 321.681 139.333 321.681 138.431 321.5 138.25 321.5 137.347 321.319 137.167 321.319 136.625 321.139 136.444 321.139 136.083 320.958 135.903 320.958 135.542 320.778 135.361 320.778 135.181 320.597 135.0 320.597 134.639 320.417 134.458 320.417 134.097 320.236 133.917 320.236 133.736 320.056 133.556 320.056 133.194 319.875 133.014 319.875 131.931 319.694 131.75 319.694 131.208 319.514 131.028 319.514 130.486 319.333 130.306 319.333 129.583 319.153 129.403 319.153 128.861 318.972 128.681 318.972 128.5 318.792 128.319 318.792 128.139 318.611 127.958 318.611 127.77799999999999 318.431 127.59700000000001 318.431 127.417 318.069 127.05600000000001 318.069 126.69399999999999 317.708 126.333 317.708 125.792 317.528 125.61099999999999 317.528 125.25 317.347 125.06899999999999 317.347 124.52799999999999 317.167 124.34700000000001 317.167 123.44399999999999 316.986 123.26400000000001 316.986 122.542 316.625 122.18100000000001 316.625 121.63900000000001 316.264 121.27799999999999 316.264 121.09700000000001 315.903 120.73599999999999 315.903 120.55600000000001 315.542 120.19399999999999 315.542 120.01400000000001 315.361 119.833 315.361 119.65299999999999 315.181 119.47200000000001 315.181 119.11099999999999 315.0 118.93100000000001 315.0 118.56899999999999 314.819 118.38900000000001 314.819 117.84700000000001 314.639 117.667 314.639 117.125 314.278 116.76400000000001 314.278 116.40299999999999 314.097 116.22200000000001 314.097 116.042 313.556 115.5 313.556 115.31899999999999 313.194 114.958 313.194 114.77799999999999 313.014 114.59700000000001 313.014 114.417 312.833 114.23599999999999 312.833 114.05600000000001 312.653 113.875 312.653 113.333 312.472 113.15299999999999 312.472 112.61099999999999 312.292 112.43100000000001 312.292 112.06899999999999 312.111 111.88900000000001 312.111 111.52799999999999 311.75 111.167 311.75 110.98599999999999 311.208 110.44399999999999 311.208 110.26400000000001 311.028 110.083 311.028 109.90299999999999 310.847 109.72200000000001 310.847 109.542 310.667 109.542 310.486 109.36099999999999 310.486 109.0 310.306 108.81899999999999 310.306 108.63900000000001 310.125 108.458 310.125 108.09700000000001 309.944 107.917 309.944 107.375 309.764 107.19399999999999 309.764 106.65299999999999 309.583 106.65299999999999 309.403 106.47200000000001 309.403 106.292 309.042 105.93100000000001 309.042 105.75 308.319 105.02799999999999 308.319 104.84700000000001 307.958 104.48599999999999 307.958 104.125 307.778 103.94399999999999 307.778 103.76400000000001 307.597 103.583 307.597 103.22200000000001 307.417 103.042 307.417 102.68100000000001 307.056 102.31899999999999 307.056 101.958 305.792 100.69399999999999 305.792 100.51400000000001 305.611 100.333 305.611 100.15299999999999 305.431 99.97200000000001 305.431 99.61099999999999 305.069 99.25 305.069 98.708 304.889 98.52799999999999 304.889 98.34700000000001 303.806 97.26400000000001 303.806 97.083 303.083 96.36099999999999 303.083 96.18100000000001 302.722 95.81899999999999 302.722 95.458 302.542 95.27799999999999 302.542 94.917 302.181 94.55600000000001 302.0 94.55600000000001 301.819 94.375 301.819 94.19399999999999 300.917 93.292 300.917 93.11099999999999 300.375 92.56899999999999 300.375 92.208 300.194 92.02799999999999 300.194 91.84700000000001 300.014 91.84700000000001 299.833 91.667 299.833 91.48599999999999 297.847 89.5 297.847 89.31899999999999 296.764 88.23599999999999 296.583 88.23599999999999 296.403 88.05600000000001 296.222 88.05600000000001 296.042 87.875 296.042 87.69399999999999 295.319 86.97200000000001 295.319 86.792 295.139 86.792 294.597 86.25 294.417 86.25 293.153 84.98599999999999 293.153 84.80600000000001 292.972 84.625 292.792 84.625 292.25 84.083 292.069 84.083 291.708 83.72200000000001 291.528 83.72200000000001 291.167 83.36099999999999 291.167 83.18100000000001 290.986 83.18100000000001 290.264 82.458 290.083 82.458 289.542 81.917 289.361 81.917 288.639 81.19399999999999 288.458 81.19399999999999 288.097 80.833 288.097 80.65299999999999 287.917 80.65299999999999 287.556 80.292 287.375 80.292 286.653 79.56899999999999 286.472 79.56899999999999 285.75 78.84700000000001 285.569 78.84700000000001 284.486 77.76400000000001 284.306 77.76400000000001 282.319 75.77799999999999 282.139 75.77799999999999 281.236 74.875 281.236 74.69399999999999 281.056 74.51400000000001 281.056 74.333 280.514 73.792 280.333 73.792 279.431 72.88900000000001 279.431 72.708 278.708 71.98599999999999 278.708 71.80600000000001 278.528 71.625 278.347 71.625 278.167 71.44399999999999 278.167 71.26400000000001 277.625 70.72200000000001 277.444 70.72200000000001 276.722 70.0 276.361 70.0 276.181 69.81899999999999 276.0 69.81899999999999 275.639 69.458 275.458 69.458 275.097 69.09700000000001 274.917 69.09700000000001 274.556 68.73599999999999 274.375 68.73599999999999 274.194 68.55600000000001 273.833 68.55600000000001 273.472 68.19399999999999 273.111 68.19399999999999 272.931 68.01400000000001 272.75 68.01400000000001 272.569 67.833 272.389 67.833 272.208 67.65299999999999 272.028 67.65299999999999 271.847 67.47200000000001 271.667 67.47200000000001 271.486 67.292 271.306 67.292 271.125 67.11099999999999 270.944 67.11099999999999 270.764 66.93100000000001 270.403 66.93100000000001 270.222 66.75 270.042 66.75 269.861 66.56899999999999 269.681 66.56899999999999 269.5 66.38900000000001 268.958 66.38900000000001 268.778 66.208 268.597 66.208 268.056 65.667 267.875 65.667 267.694 65.48599999999999 267.514 65.48599999999999 267.153 65.125 266.611 65.125 266.431 64.94399999999999 266.25 64.94399999999999 266.069 64.76400000000001 265.889 64.76400000000001 265.528 64.40299999999999 265.347 64.40299999999999 265.167 64.22200000000001 264.986 64.22200000000001 264.806 64.042 264.625 64.042 264.264 63.68100000000001 263.903 63.68100000000001 263.722 63.5 263.542 63.5 263.361 63.31899999999999 263.181 63.31899999999999 262.819 62.958 262.458 62.958 262.278 62.77799999999999 262.097 62.77799999999999 261.917 62.59700000000001 261.556 62.59700000000001 261.194 62.23599999999999 261.014 62.23599999999999 260.833 62.05600000000001 260.472 62.05600000000001 260.292 61.875 259.931 61.875 259.75 61.69399999999999 259.569 61.69399999999999 259.389 61.51400000000001 258.667 61.51400000000001 258.486 61.333 258.306 61.333 258.125 61.15299999999999 257.944 61.15299999999999 257.764 60.97200000000001 257.403 60.97200000000001 257.222 60.792 256.681 60.792 256.319 60.43100000000001 255.59699999999998 60.43100000000001 255.41699999999997 60.25 255.236 60.25 255.05599999999998 60.06899999999999 253.79199999999997 60.06899999999999 253.611 59.88900000000001 253.25 59.88900000000001 253.06900000000002 59.708 252.889 59.708 252.70800000000003 59.52799999999999 251.986 59.52799999999999 251.80599999999998 59.34700000000001 251.44400000000002 59.34700000000001 251.264 59.167 250.90300000000002 59.167 250.72199999999998 58.98599999999999 249.81900000000002 58.98599999999999 249.639 58.80600000000001 248.55599999999998 58.80600000000001 248.375 58.625 247.29199999999997 58.625 247.111 58.44399999999999 246.389 58.44399999999999 246.20800000000003 58.26400000000001 245.66699999999997 58.26400000000001 245.486 58.083 244.764 58.083 244.58300000000003 57.90299999999999 244.40300000000002 57.90299999999999 244.22199999999998 57.72200000000001 243.68099999999998 57.72200000000001 243.5 57.542 243.139 57.542 242.95800000000003 57.36099999999999 242.41699999999997 57.36099999999999 242.236 57.18100000000001 240.97199999999998 57.18100000000001 240.79199999999997 57.0 239.70800000000003 57.0 239.52800000000002 56.81899999999999 238.80599999999998 56.81899999999999 238.625 56.63900000000001 237.72199999999998 56.63900000000001 237.54199999999997 56.458 236.639 56.458 236.27800000000002 56.09700000000001 235.91699999999997 56.09700000000001 235.736 55.917 234.47199999999998 55.917 234.29199999999997 55.73599999999999 233.389 55.73599999999999 233.20800000000003 55.55600000000001 231.40300000000002 55.55600000000001 231.22199999999998 55.375 229.41699999999997 55.375 229.236 55.19399999999999 227.25 55.19399999999999 227.06900000000002 55.01400000000001 225.80599999999998 55.01400000000001 225.625 54.833 223.81900000000002 54.833 223.639 54.653000000000006 221.83300000000003 54.653000000000006 221.65300000000002 54.471999999999994 219.486 54.471999999999994 219.30599999999998 54.292 214.611 54.292 214.43099999999998 54.471999999999994 213.16699999999997 54.471999999999994 212.986 54.653000000000006 212.80599999999998 54.653000000000006 212.625 54.471999999999994 212.44400000000002 54.471999999999994 212.264 54.653000000000006 210.639 54.653000000000006 210.45800000000003 54.833 208.65300000000002 54.833 208.47199999999998 55.01400000000001 205.94400000000002 55.01400000000001 205.764 55.19399999999999 203.41699999999997 55.19399999999999 203.236 55.375 201.97199999999998 55.375 201.79199999999997 55.55600000000001 200.70800000000003 55.55600000000001 200.52800000000002 55.73599999999999 199.44400000000002 55.73599999999999 199.264 55.917 199.08300000000003 55.917 198.90300000000002 56.09700000000001 198.18099999999998 56.09700000000001 197.81900000000002 56.458 197.09699999999998 56.458 196.91699999999997 56.63900000000001 196.19400000000002 56.63900000000001 196.014 56.81899999999999 195.47199999999998 56.81899999999999 195.29199999999997 57.0 194.75 57.0 194.56900000000002 57.18100000000001 193.84699999999998 57.18100000000001 193.66699999999997 57.36099999999999 193.125 57.36099999999999 192.94400000000002 57.542 192.58300000000003 57.542 192.40300000000002 57.72200000000001 192.22199999999998 57.72200000000001 192.04199999999997 57.90299999999999 191.31900000000002 57.90299999999999 191.139 58.083 190.77800000000002 58.083 190.59699999999998 58.26400000000001 189.875 58.26400000000001 189.69400000000002 58.44399999999999 188.97199999999998 58.44399999999999 188.79199999999997 58.625 187.70800000000003 58.625 187.52800000000002 58.80600000000001 186.986 58.80600000000001 186.80599999999998 58.98599999999999 186.44400000000002 58.98599999999999 186.264 59.167 185.72199999999998 59.167 185.54199999999997 59.34700000000001 185.18099999999998 59.34700000000001 185.0 59.52799999999999 184.639 59.52799999999999 184.45800000000003 59.708 184.27800000000002 59.708 184.09699999999998 59.88900000000001 183.736 59.88900000000001 183.55599999999998 60.06899999999999 183.014 60.06899999999999 182.83300000000003 60.25 182.111 60.25 181.93099999999998 60.43100000000001 181.75 60.43100000000001 181.56900000000002 60.61099999999999 181.20800000000003 60.61099999999999 181.02800000000002 60.792 180.84699999999998 60.792 180.66699999999997 60.97200000000001 180.125 60.97200000000001 179.94400000000002 61.15299999999999 179.764 61.15299999999999 179.58300000000003 61.333 179.40300000000002 61.333 179.22199999999998 61.51400000000001 178.861 61.51400000000001 178.68099999999998 61.69399999999999 178.31900000000002 61.69399999999999 178.139 61.875 177.59699999999998 61.875 177.41699999999997 62.05600000000001 177.236 62.05600000000001 177.05599999999998 62.23599999999999 176.69400000000002 62.23599999999999 176.33300000000003 62.59700000000001 175.97199999999998 62.59700000000001 175.79199999999997 62.77799999999999 175.43099999999998 62.77799999999999 175.25 62.958 175.06900000000002 62.958 174.889 63.13900000000001 174.70800000000003 63.13900000000001 174.52800000000002 63.31899999999999 174.16699999999997 63.31899999999999 173.986 63.5 173.625 63.5 173.44400000000002 63.68100000000001 172.90300000000002 63.68100000000001 172.54199999999997 64.042 172.361 64.042 172.18099999999998 64.22200000000001 172.0 64.22200000000001 171.81900000000002 64.40299999999999 171.639 64.40299999999999 171.45800000000003 64.583 171.27800000000002 64.583 171.09699999999998 64.76400000000001 170.736 64.76400000000001 170.55599999999998 64.94399999999999 169.83300000000003 64.94399999999999 169.65300000000002 65.125 169.47199999999998 65.125 169.29199999999997 65.30600000000001 168.75 65.30600000000001 168.56900000000002 65.48599999999999 168.02800000000002 65.48599999999999 167.84699999999998 65.667 167.486 65.667 167.30599999999998 65.84700000000001 166.94400000000002 65.84700000000001 166.764 66.02799999999999 166.22199999999998 66.02799999999999 166.04199999999997 66.208 162.79199999999997 66.208 162.611 66.02799999999999 161.889 66.02799999999999 161.70800000000003 65.84700000000001 161.34699999999998 65.84700000000001 161.16699999999997 65.667 160.44400000000002 65.667 160.264 65.48599999999999 160.08300000000003 65.48599999999999 159.90300000000002 65.30600000000001 159.72199999999998 65.30600000000001 159.54199999999997 65.125 159.0 65.125 158.81900000000002 64.94399999999999 158.45800000000003 64.94399999999999 158.27800000000002 64.76400000000001 158.09699999999998 64.76400000000001 157.91699999999997 64.583 157.736 64.583 157.55599999999998 64.40299999999999 157.375 64.40299999999999 157.014 64.042 156.83300000000003 64.042 156.65300000000002 63.86099999999999 156.47199999999998 63.86099999999999 156.29199999999997 63.68100000000001 156.111 63.68100000000001 155.93099999999998 63.5 155.75 63.5 155.56900000000002 63.31899999999999 155.389 63.31899999999999 155.20800000000003 63.13900000000001 155.02800000000002 63.13900000000001 154.84699999999998 62.958 154.66699999999997 62.958 154.486 62.77799999999999 154.30599999999998 62.77799999999999 154.125 62.59700000000001 153.94400000000002 62.59700000000001 153.58300000000003 62.23599999999999 153.40300000000002 62.23599999999999 153.22199999999998 62.05600000000001 152.861 62.05600000000001 152.68099999999998 61.875 152.5 61.875 152.31900000000002 61.69399999999999 152.139 61.69399999999999 151.95800000000003 61.51400000000001 151.77800000000002 61.51400000000001 151.41699999999997 61.15299999999999 151.236 61.15299999999999 151.05599999999998 60.97200000000001 150.875 60.97200000000001 150.514 60.61099999999999 150.15300000000002 60.61099999999999 149.611 60.06899999999999 149.25 60.06899999999999 149.06900000000002 59.88900000000001 148.889 59.88900000000001 148.52800000000002 59.52799999999999 148.34699999999998 59.52799999999999 147.80599999999998 58.98599999999999 147.625 58.98599999999999 147.264 58.625 147.08300000000003 58.625 146.90300000000002 58.44399999999999 146.72199999999998 58.44399999999999 145.81900000000002 57.542 145.639 57.542 145.45800000000003 57.36099999999999 145.45800000000003 57.18100000000001 145.27800000000002 57.0 145.09699999999998 57.0 144.55599999999998 56.458 144.375 56.458 144.014 56.09700000000001 144.014 55.917 143.65300000000002 55.55600000000001 143.47199999999998 55.55600000000001 143.29199999999997 55.375 143.29199999999997 55.19399999999999 142.93099999999998 54.833 142.75 54.833 142.20800000000003 54.292 142.02800000000002 54.292 141.486 53.75 141.486 53.569 140.764 52.846999999999994 140.58300000000003 52.846999999999994 139.5 51.763999999999996 139.5 51.583 139.31900000000002 51.403000000000006 139.139 51.403000000000006 138.95800000000003 51.221999999999994 138.95800000000003 50.861000000000004 138.59699999999998 50.5 138.59699999999998 50.319 137.15300000000002 48.875 137.15300000000002 48.694 136.97199999999998 48.513999999999996 136.79199999999997 48.513999999999996 136.611 48.333 136.611 48.153000000000006 136.43099999999998 47.971999999999994 136.43099999999998 47.792 136.25 47.611000000000004 136.25 47.431 136.06900000000002 47.25 136.06900000000002 47.069 135.889 47.069 135.34699999999998 46.528000000000006 135.34699999999998 46.346999999999994 134.986 45.986000000000004 134.986 45.806 134.80599999999998 45.625 134.80599999999998 45.263999999999996 134.44400000000002 44.903000000000006 134.44400000000002 44.721999999999994 134.264 44.542 134.264 42.375 134.44400000000002 42.194 134.44400000000002 41.292 134.625 41.111000000000004 134.625 40.75 134.80599999999998 40.569 134.80599999999998 40.028000000000006 134.986 39.846999999999994 134.986 39.486000000000004 135.16699999999997 39.306 135.16699999999997 39.125 135.34699999999998 38.944 135.34699999999998 38.763999999999996 136.06900000000002 38.042 136.06900000000002 37.861000000000004 136.25 37.681 136.25 37.5 136.43099999999998 37.319 136.43099999999998 36.596999999999994 136.611 36.417 136.611 35.694 136.79199999999997 35.513999999999996 136.79199999999997 34.971999999999994 136.97199999999998 34.792 136.97199999999998 34.25 137.15300000000002 34.069 137.15300000000002 33.708 137.33300000000003 33.528000000000006 137.33300000000003 33.346999999999994 137.514 33.167 137.514 32.806 137.69400000000002 32.625 137.69400000000002 32.263999999999996 137.875 32.083 137.875 31.903000000000006 138.05599999999998 31.721999999999994 138.05599999999998 31.0 138.236 30.819000000000003 138.236 30.458 138.41699999999997 30.278000000000006 138.41699999999997 29.736000000000004 138.59699999999998 29.555999999999997 138.59699999999998 27.388999999999996 138.77800000000002 27.208 138.77800000000002 25.583 138.59699999999998 25.403000000000006 138.59699999999998 23.958 138.41699999999997 23.778000000000006 138.41699999999997 22.875 138.236 22.694000000000003 138.236 22.333 138.05599999999998 22.153000000000006 138.05599999999998 21.971999999999994 137.875 21.792 137.875 21.430999999999997 137.69400000000002 21.430999999999997 137.514 21.25 137.514 20.888999999999996 137.33300000000003 20.708 137.33300000000003 20.528000000000006 137.15300000000002 20.346999999999994 137.15300000000002 20.167 136.97199999999998 19.986000000000004 136.97199999999998 19.625 136.79199999999997 19.444000000000003 136.79199999999997 19.263999999999996 136.611 19.083 136.611 18.903000000000006 136.43099999999998 18.721999999999994 136.43099999999998 18.542 136.25 18.361000000000004 136.25 18.180999999999997 135.70800000000003 17.638999999999996 135.70800000000003 17.458 135.52800000000002 17.458 135.16699999999997 17.096999999999994 134.986 17.096999999999994 134.08300000000003 16.194000000000003 133.90300000000002 16.194000000000003 133.72199999999998 16.013999999999996 133.54199999999997 16.013999999999996 133.18099999999998 15.653000000000006 132.639 15.653000000000006 132.27800000000002 15.292000000000002 131.19400000000002 15.292000000000002 131.014 15.111000000000004 129.75 15.111000000000004 129.56900000000002 14.930999999999997 124.51400000000001 14.930999999999997 124.33300000000003 15.111000000000004 123.25 15.111000000000004 123.06900000000002 15.292000000000002 122.16699999999997 15.292000000000002 121.98599999999999 15.471999999999994 121.44400000000002 15.471999999999994 121.26400000000001 15.653000000000006 120.90300000000002 15.653000000000006 120.54199999999997 16.013999999999996 120.18099999999998 16.013999999999996 120.0 16.194000000000003 119.45800000000003 16.194000000000003 119.09699999999998 16.555999999999997 118.55599999999998 16.555999999999997 118.19400000000002 16.917 118.01400000000001 16.917 117.83300000000003 17.096999999999994 117.47199999999998 17.096999999999994 117.29199999999997 17.278000000000006 117.11099999999999 17.278000000000006 116.93099999999998 17.458 116.56900000000002 17.458 116.38900000000001 17.638999999999996 115.48599999999999 17.638999999999996 115.30599999999998 17.819000000000003 114.58300000000003 17.819000000000003 114.40300000000002 17.638999999999996 113.68099999999998 17.638999999999996 113.5 17.458 112.95800000000003 17.458 112.77800000000002 17.278000000000006 112.59699999999998 17.278000000000006 112.41699999999997 17.096999999999994 111.69400000000002 17.096999999999994 111.51400000000001 16.917 111.51400000000001 16.736000000000004 110.97199999999998 16.736000000000004 110.79199999999997 16.555999999999997 110.61099999999999 16.555999999999997 110.43099999999998 16.375 110.25 16.375 109.88900000000001 16.013999999999996 109.52800000000002 16.013999999999996 109.34699999999998 15.832999999999998 109.16699999999997 15.832999999999998 108.98599999999999 15.653000000000006 108.80599999999998 15.653000000000006 108.625 15.471999999999994 108.44400000000002 15.471999999999994 108.26400000000001 15.292000000000002 107.90300000000002 15.292000000000002 107.72199999999998 15.111000000000004 107.0 15.111000000000004 106.81900000000002 14.930999999999997 106.63900000000001 14.930999999999997 106.45800000000003 14.75 105.73599999999999 14.75 105.375 14.388999999999996 105.01400000000001 14.388999999999996 104.83300000000003 14.207999999999998 104.47199999999998 14.207999999999998 104.29199999999997 14.028000000000006 103.93099999999998 14.028000000000006 103.75 13.846999999999994 102.66699999999997 13.846999999999994 102.48599999999999 13.667000000000002 101.94400000000002 13.667000000000002 101.76400000000001 13.486000000000004 100.86099999999999 13.486000000000004 100.68099999999998 13.305999999999997 98.51400000000001 13.305999999999997 98.33300000000003 13.125 97.25 13.125 97.06900000000002 12.944000000000003 95.26400000000001 12.944000000000003 95.08300000000003 12.763999999999996 "/></svg>