<svg width="350" height="350" xmlns="http://www.w3.org/2000/svg">
  <defs>
    <pattern id="hexagon_pattern" width="52.290799" height="45.285135" patternUnits="userSpaceOnUse">
      <path transform="matrix(3.7795 0 0 3.7795 -198.38 231.25)" d="m69.782-45.208 3.4588-1.997v-3.9939l-3.4588-1.9969-3.4588 1.9969 6e-6 3.9939zm-6.9176 0 3.4588-1.997v-3.9939l-3.4588-1.9969-3.4588 1.9969 5e-6 3.9939zm-6.9176 0 3.4588-1.997v-3.9939l-3.4588-1.9969-3.4588 1.9969 6e-6 3.9939zm-6.9176 0 3.4588-1.997v-3.9939l-3.4588-1.9969-3.4588 1.9969 5e-6 3.9939zm17.294-5.9908 3.4588-1.997v-3.9939l-3.4588-1.9969-3.4588 1.9969 6e-6 3.9939zm-6.9176 0 3.4588-1.997v-3.9939l-3.4588-1.9969-3.4588 1.9969 5e-6 3.9939zm-6.9176 0 3.4588-1.997v-3.9939l-3.4588-1.9969-3.4588 1.9969 6e-6 3.9939zm-6.9176 0 3.4588-1.997v-3.9939l-3.4588-1.9969m24.212 1.997 3.4588-1.997v-3.9939l-3.4588-1.9969-3.4588 1.9969 6e-6 3.9939zm-6.9176 0 3.4588-1.997v-3.9939l-3.4588-1.9969-3.4588 1.9969 5e-6 3.9939zm-6.9176 0 3.4588-1.997v-3.9939l-3.4588-1.9969-3.4588 1.9969 6e-6 3.9939zm-6.9176 0 3.4588-1.997v-3.9939l-3.4588-1.9969-3.4588 1.9969 5e-6 3.9939z" clip-path="url(#clipPath6435)" fill="none" stroke="#000" stroke-width="1.3229"/>
    </pattern>
  </defs>
<rect x="0" y="0" width="350" height="350" fill="#FFFFFF" /><path stroke="#257ca3" stroke-linejoin="round" stroke-width="5" fill="url(#hexagon_pattern)" d="M98.67 25.17 98.5 25.33 96.17 25.33 96.0 25.5 93.83 25.5 93.67 25.67 91.83 25.67 91.67 25.83 90.33 25.83 90.17 26.0 88.5 26.0 88.33 26.17 86.33 26.17 86.17 26.33 85.67 26.33 85.5 26.17 84.5 26.17 84.33 26.33 83.83 26.33 83.67 26.5 82.17 26.5 82.0 26.67 81.0 26.67 80.83 26.83 79.83 26.83 79.67 27.0 78.67 27.0 78.5 27.17 77.17 27.17 77.0 27.33 76.0 27.33 75.83 27.5 75.17 27.5 75.0 27.67 73.83 27.67 73.83 27.83 73.67 28.0 73.17 28.0 73.0 28.17 72.67 28.17 72.5 28.33 72.17 28.33 71.83 28.67 71.33 28.67 71.17 28.83 70.33 28.83 70.17 29.0 69.83 29.0 69.67 29.17 69.5 29.17 69.33 29.33 69.0 29.33 68.83 29.5 68.5 29.5 68.33 29.67 68.17 29.67 68.0 29.83 67.83 29.83 67.67 30.0 67.5 30.0 67.33 30.17 67.0 30.17 66.83 30.33 66.67 30.33 66.5 30.5 66.0 30.5 65.83 30.67 65.67 30.67 65.5 30.83 65.33 30.83 65.17 31.0 65.0 31.0 64.83 31.17 64.5 31.17 64.33 31.33 63.83 31.33 63.67 31.5 63.17 31.5 63.0 31.67 62.0 31.67 61.67 32.0 61.5 32.0 61.33 31.83 60.83 31.83 60.67 31.67 60.33 31.67 60.17 31.5 59.83 31.5 59.67 31.33 59.5 31.33 59.33 31.17 59.17 31.17 58.83 30.83 58.67 30.83 58.5 30.67 58.17 30.67 58.0 30.5 57.67 30.5 57.5 30.33 57.5 30.17 57.0 30.17 56.83 30.0 56.67 30.0 56.5 29.83 56.17 29.83 55.83 29.5 55.33 29.5 55.17 29.33 54.83 29.33 54.67 29.17 54.33 29.17 54.17 29.0 53.33 29.0 53.17 28.83 49.0 28.83 48.83 29.0 47.67 29.0 47.5 29.17 47.17 29.17 47.0 29.33 46.83 29.33 46.67 29.5 46.0 29.5 45.83 29.67 45.67 29.67 45.5 29.83 45.33 29.83 45.17 30.0 45.0 30.0 44.83 30.17 44.67 30.17 44.33 30.5 44.0 30.5 43.83 30.67 43.67 30.67 43.0 31.33 42.83 31.33 41.83 32.33 41.83 32.5 41.33 33.0 41.33 33.17 40.83 33.67 40.83 33.83 40.67 34.0 40.5 34.0 40.5 34.33 40.33 34.5 40.17 34.5 40.17 34.83 40.0 35.0 40.0 35.17 39.83 35.33 39.83 36.17 39.67 36.33 39.67 37.5 39.5 37.67 39.5 43.83 39.67 44.0 39.67 45.5 39.83 45.67 39.83 46.83 40.0 47.0 40.0 48.0 40.17 48.17 40.17 48.33 40.33 48.5 40.33 48.83 40.5 49.0 40.5 49.17 40.83 49.5 40.83 49.67 41.33 50.17 41.33 50.33 41.5 50.5 41.5 50.67 41.67 50.83 41.67 51.17 41.83 51.33 41.83 51.67 42.0 51.83 42.0 52.33 42.17 52.5 42.17 52.83 42.33 53.0 42.33 53.17 42.83 53.67 42.83 53.83 43.5 54.5 43.5 54.67 43.83 55.0 43.83 55.17 44.0 55.33 44.0 55.83 44.17 56.0 44.17 56.17 44.33 56.33 44.33 56.5 44.5 56.67 44.5 57.17 44.67 57.33 44.67 57.83 44.83 58.0 44.83 58.17 45.0 58.33 45.0 59.0 45.17 59.17 45.17 60.83 45.33 61.0 45.33 62.83 45.17 63.0 45.17 64.17 45.0 64.33 45.0 65.0 44.83 65.17 44.83 66.17 44.67 66.33 44.67 66.83 44.5 67.0 44.5 69.0 44.33 69.17 44.33 70.0 44.17 70.17 44.17 75.67 44.0 75.83 44.0 80.0 44.17 80.17 44.17 82.67 44.33 82.83 44.33 83.5 44.5 83.67 44.5 84.5 44.67 84.67 44.67 85.33 44.83 85.5 44.83 86.0 45.17 86.33 45.17 86.67 45.33 86.83 45.33 87.0 45.5 87.17 45.5 87.5 45.67 87.67 45.67 87.83 45.83 88.0 45.83 88.17 46.0 88.33 46.0 88.5 46.17 88.67 46.17 89.33 46.33 89.5 46.33 90.0 46.5 90.17 46.5 90.83 46.67 91.0 46.67 91.5 46.83 91.67 46.83 92.17 47.17 92.5 47.17 92.67 47.33 92.83 47.33 93.17 47.5 93.33 47.5 93.5 47.67 93.67 47.67 93.83 48.0 94.17 48.0 94.33 48.17 94.5 48.17 94.67 48.5 95.0 48.5 95.67 48.67 95.83 48.67 96.5 48.83 96.67 48.83 97.17 49.0 97.33 49.0 97.83 49.33 98.17 49.33 98.67 49.5 98.83 49.5 99.0 49.83 99.33 49.83 99.5 50.0 99.67 50.0 99.83 50.17 100.0 50.17 100.17 50.33 100.33 50.33 100.5 50.5 100.67 50.5 100.83 50.67 101.0 50.67 101.5 50.83 101.67 50.83 102.17 51.0 102.33 51.0 103.0 51.17 103.17 51.17 103.83 51.33 104.0 51.33 104.67 51.5 104.83 51.5 105.0 51.67 105.17 51.67 105.33 51.83 105.5 51.83 105.67 52.0 105.83 52.0 106.0 52.17 106.17 52.17 106.33 52.33 106.5 52.33 106.67 52.5 106.83 52.5 107.0 52.83 107.33 52.83 108.0 53.0 108.17 53.0 108.67 53.17 108.83 53.17 109.17 53.33 109.33 53.33 109.83 53.5 110.0 53.5 110.33 54.0 110.83 54.0 111.17 54.17 111.33 54.17 111.5 54.33 111.5 54.5 111.67 54.5 111.83 54.83 112.17 54.83 112.33 55.17 112.67 55.17 113.0 55.33 113.17 55.33 113.83 55.5 114.0 55.5 114.17 55.67 114.33 55.67 114.67 55.83 114.83 55.83 115.0 56.17 115.33 56.17 115.5 56.33 115.5 56.5 115.67 56.5 115.83 56.83 116.17 56.83 116.33 57.17 116.67 57.17 116.83 57.33 117.0 57.33 117.17 57.5 117.33 57.5 117.83 57.67 118.0 57.67 118.17 57.83 118.33 57.83 118.5 58.0 118.67 58.0 119.33 58.83 120.17 58.83 120.5 59.33 121.0 59.33 121.33 59.5 121.5 59.5 121.83 59.67 122.0 59.67 122.5 59.83 122.67 59.83 123.17 60.0 123.33 60.0 124.33 60.17 124.5 60.17 125.33 60.33 125.5 60.33 125.83 60.5 126.0 60.5 126.5 60.67 126.67 60.67 127.0 60.83 127.17 60.83 127.5 61.0 127.67 61.0 128.0 61.17 128.17 61.17 128.33 61.33 128.5 61.33 128.83 61.5 129.0 61.5 129.67 61.67 129.83 61.67 130.17 61.83 130.33 61.83 131.33 62.0 131.5 62.0 132.5 62.17 132.67 62.17 134.17 62.33 134.33 62.33 134.67 62.5 134.83 62.5 135.17 62.67 135.33 62.67 135.5 62.83 135.67 62.83 136.17 63.33 136.67 63.33 137.33 63.5 137.5 63.5 137.67 63.67 137.83 63.67 138.17 63.83 138.33 63.83 138.83 64.0 139.0 64.0 140.33 64.17 140.5 64.17 147.67 64.0 147.83 64.0 155.67 63.83 155.83 63.83 158.17 64.0 158.33 64.0 159.5 64.17 159.67 64.17 165.67 64.33 165.83 64.33 166.33 64.17 166.5 64.17 166.67 64.33 166.83 64.33 167.33 64.5 167.5 64.5 168.5 64.67 168.67 64.67 169.0 64.5 169.17 64.5 171.5 64.67 171.67 64.67 172.33 64.83 172.5 64.83 173.5 65.0 173.67 65.0 174.17 65.17 174.33 65.17 174.83 65.33 175.0 65.33 175.33 65.5 175.5 65.5 176.0 65.67 176.17 65.67 176.5 65.83 176.67 65.83 177.5 66.0 177.67 66.0 179.0 66.17 179.17 66.17 180.5 66.33 180.67 66.33 181.5 66.5 181.67 66.5 183.0 66.67 183.17 66.67 186.67 66.83 186.83 66.83 189.5 67.0 189.67 67.0 190.67 67.17 190.83 67.17 191.83 67.33 192.0 67.33 192.67 67.5 192.83 67.5 193.67 67.67 193.83 67.67 194.83 67.83 195.0 67.83 196.0 68.0 196.17 68.0 197.33 68.17 197.5 68.17 198.83 68.33 199.0 68.33 199.5 68.5 199.67 68.5 201.5 68.67 201.67 68.67 202.33 68.5 202.5 68.5 202.67 68.67 202.83 68.67 204.0 68.83 204.17 68.83 204.83 69.0 205.0 69.0 206.17 69.17 206.33 69.17 207.5 69.33 207.67 69.33 208.83 69.5 209.0 69.5 210.17 69.67 210.33 69.67 210.5 69.83 210.67 69.83 211.5 70.0 211.67 70.0 212.67 70.17 212.83 70.17 214.17 70.33 214.33 70.33 214.83 70.5 215.0 70.5 216.67 70.67 216.83 70.67 217.5 70.83 217.67 70.83 218.17 71.0 218.33 71.0 219.5 71.17 219.67 71.17 220.17 71.33 220.33 71.33 221.5 71.5 221.67 71.5 222.67 71.67 222.83 71.67 223.5 71.83 223.67 71.83 224.17 72.0 224.33 72.0 225.33 72.17 225.5 72.17 226.83 72.33 227.0 72.33 227.5 72.5 227.67 72.5 228.5 72.67 228.67 72.67 229.33 72.83 229.5 72.83 230.5 73.0 230.67 73.0 232.0 73.17 232.17 73.17 232.83 73.33 233.0 73.33 233.67 73.5 233.83 73.5 234.33 73.67 234.5 73.67 235.0 73.83 235.17 73.83 235.5 74.0 235.67 74.0 236.0 74.17 236.17 74.17 236.67 74.33 236.83 74.33 237.17 74.5 237.33 74.5 237.83 74.67 238.0 74.67 238.83 74.83 239.0 74.83 240.5 75.0 240.67 75.0 241.67 75.17 241.83 75.17 243.17 75.33 243.33 75.33 243.67 75.17 243.83 75.17 244.17 75.33 244.33 75.33 245.17 75.5 245.33 75.5 246.17 75.67 246.33 75.67 247.0 75.83 247.17 75.83 247.67 76.0 247.83 76.0 248.17 76.17 248.33 76.17 248.83 76.33 249.0 76.33 249.5 76.5 249.67 76.5 250.0 76.67 250.17 76.67 250.67 76.83 250.83 76.83 251.5 77.0 251.67 77.0 252.17 77.17 252.33 77.17 253.17 77.33 253.33 77.33 253.83 77.5 254.0 77.5 255.0 77.67 255.17 77.67 255.5 77.83 255.67 77.83 256.33 78.0 256.5 78.0 256.83 78.17 257.0 78.17 257.33 78.33 257.5 78.33 257.67 78.5 257.83 78.5 258.17 78.67 258.33 78.67 258.5 78.83 258.67 78.83 258.83 79.17 259.17 79.17 259.67 79.33 259.83 79.33 260.17 79.5 260.33 79.5 261.17 79.67 261.33 79.67 262.17 79.83 262.33 79.83 263.0 80.0 263.17 80.0 264.0 80.17 264.17 80.17 264.5 80.33 264.67 80.33 264.83 80.5 265.0 80.5 265.17 80.67 265.33 80.67 265.67 81.0 266.0 81.0 266.5 81.17 266.67 81.17 266.83 81.33 267.0 81.33 267.83 81.5 268.0 81.5 268.67 81.67 268.83 81.67 269.67 81.83 269.83 81.83 270.83 82.0 271.0 82.0 271.67 82.17 271.83 82.17 272.33 82.33 272.5 82.33 273.33 82.5 273.5 82.5 273.67 82.67 273.83 82.67 274.17 82.83 274.33 82.83 274.67 83.0 274.83 83.0 275.17 83.33 275.5 83.33 276.33 83.5 276.5 83.5 277.5 83.67 277.67 83.67 278.33 83.83 278.5 83.83 279.17 84.0 279.33 84.0 280.17 84.17 280.33 84.17 281.33 84.5 281.67 84.5 281.83 84.67 282.0 84.67 282.5 84.83 282.67 84.83 283.0 85.0 283.17 85.0 283.33 85.17 283.5 85.17 283.83 85.33 284.0 85.33 284.33 85.5 284.5 85.5 284.83 85.67 285.0 85.67 285.5 85.83 285.67 85.83 286.17 86.0 286.33 86.0 286.83 86.17 287.0 86.17 287.5 86.33 287.67 86.33 288.0 86.5 288.17 86.5 288.67 86.67 288.83 86.67 289.17 86.83 289.33 86.83 290.0 87.17 290.33 87.17 290.67 87.33 290.83 87.33 291.17 87.67 291.5 87.67 291.67 87.83 291.83 87.83 292.0 88.0 292.17 88.0 292.33 88.17 292.5 88.17 292.83 88.33 293.0 88.33 293.33 88.5 293.5 88.5 294.67 88.83 295.0 88.83 296.17 89.0 296.33 89.0 297.0 89.17 297.17 89.17 297.83 89.33 298.0 89.33 301.0 89.17 301.17 89.17 301.5 89.0 301.67 89.0 302.33 88.5 302.83 88.5 303.0 88.17 303.33 88.17 303.83 87.83 304.17 87.67 304.17 87.67 304.33 87.5 304.5 87.5 304.67 87.0 305.17 87.0 305.33 86.5 305.83 86.17 305.83 85.83 306.17 85.83 306.5 85.0 307.33 84.83 307.33 84.67 307.5 84.5 307.5 84.5 307.67 84.33 307.83 83.83 307.83 83.83 308.0 83.67 308.17 83.67 308.33 83.33 308.67 83.17 308.67 83.17 309.0 83.0 309.17 82.83 309.17 82.83 309.5 82.33 310.0 82.0 310.0 81.83 310.17 81.83 310.33 81.67 310.5 81.33 310.5 81.33 310.83 80.67 311.5 80.5 311.5 80.33 311.67 80.17 311.67 79.67 312.17 79.5 312.17 79.33 312.33 79.17 312.33 79.17 312.5 79.0 312.67 78.83 312.67 78.67 312.83 78.67 313.17 78.33 313.5 78.33 313.83 78.0 314.17 77.83 314.17 77.83 314.33 77.67 314.5 77.5 314.5 77.5 314.67 77.33 314.83 77.33 315.0 77.17 315.17 77.17 315.67 76.83 316.0 76.83 317.83 77.0 318.0 77.0 318.33 76.83 318.5 76.67 318.5 76.67 318.83 76.5 319.0 76.33 319.0 76.33 319.5 76.5 319.67 76.5 320.83 76.67 321.0 76.67 321.33 76.83 321.5 76.83 322.0 77.17 322.33 77.17 322.5 77.5 322.83 77.83 322.83 78.0 323.0 78.0 323.17 78.17 323.17 78.33 323.33 78.5 323.33 78.83 323.67 79.0 323.67 79.17 323.83 79.5 323.83 79.67 324.0 80.0 324.0 80.17 324.17 80.33 324.17 80.5 324.33 81.33 324.33 81.5 324.5 81.67 324.5 81.83 324.67 83.0 324.67 83.17 324.83 84.33 324.83 84.5 325.0 86.83 325.0 87.0 324.83 88.5 324.83 88.67 324.67 90.67 324.67 90.83 324.5 92.0 324.5 92.17 324.33 93.33 324.33 93.5 324.17 95.17 324.17 95.33 324.0 98.83 324.0 99.0 323.83 100.33 323.83 100.5 324.0 101.0 324.0 101.17 323.83 103.67 323.83 103.83 323.67 105.33 323.67 105.5 323.5 107.5 323.5 107.67 323.33 107.83 323.33 108.0 323.5 108.17 323.5 108.33 323.33 108.5 323.33 108.67 323.5 109.5 323.5 109.67 323.33 112.83 323.33 113.0 323.17 114.67 323.17 114.83 323.0 115.67 323.0 115.83 322.83 116.0 322.83 116.17 322.67 117.0 322.67 117.17 322.5 118.33 322.5 118.5 322.33 119.5 322.33 119.67 322.17 120.67 322.17 120.83 322.0 122.17 322.0 122.33 321.83 122.83 321.83 123.0 321.67 124.67 321.67 124.83 321.5 126.33 321.5 126.5 321.33 127.83 321.33 128.0 321.17 129.83 321.17 130.0 321.0 130.5 321.0 130.67 320.83 132.0 320.83 132.17 320.67 133.67 320.67 133.83 320.5 134.67 320.5 134.83 320.33 135.33 320.33 135.5 320.17 135.67 320.17 135.83 320.0 136.33 320.0 136.5 319.83 136.67 319.83 136.67 319.67 136.83 319.5 137.0 319.5 137.17 319.33 137.17 319.17 137.33 319.0 137.33 318.83 137.0 318.5 137.0 317.67 136.83 317.67 136.67 317.5 136.67 317.33 136.5 317.17 136.33 317.17 135.67 316.5 135.67 316.33 135.5 316.33 135.33 316.17 135.33 316.0 135.17 315.83 135.17 315.5 135.0 315.33 135.0 315.17 134.83 315.0 134.83 314.67 134.67 314.5 134.67 314.33 134.5 314.17 134.5 314.0 134.33 313.83 134.33 313.33 134.17 313.17 134.17 312.83 134.0 312.67 134.0 312.5 133.83 312.33 133.83 312.17 133.67 312.0 133.67 311.83 133.5 311.67 133.5 311.33 133.33 311.17 133.33 311.0 133.17 310.83 133.17 310.5 133.0 310.33 133.0 309.83 132.83 309.67 132.83 308.17 132.67 308.0 132.67 304.33 132.5 304.17 132.5 303.67 132.67 303.5 132.67 303.33 132.5 303.17 132.5 298.67 132.33 298.5 132.33 297.67 132.17 297.5 132.17 297.17 132.0 297.0 132.0 296.67 131.83 296.5 131.83 296.33 131.67 296.17 131.67 296.0 131.5 295.83 131.5 295.67 131.17 295.33 131.17 295.0 131.0 294.83 131.0 294.67 130.83 294.5 130.83 293.83 130.67 293.67 130.67 292.33 130.5 292.17 130.5 291.17 130.33 291.0 130.33 284.17 130.5 284.0 130.5 281.83 130.67 281.67 130.67 280.0 130.83 279.83 130.83 279.0 131.0 278.83 131.0 278.33 131.17 278.17 131.17 277.33 131.33 277.17 131.33 276.17 131.5 276.0 131.5 275.17 131.67 275.0 131.67 274.67 131.83 274.5 131.83 274.17 132.0 274.0 132.0 273.83 132.17 273.67 132.17 272.83 132.33 272.67 132.33 272.17 132.5 272.0 132.5 270.0 132.67 269.83 132.67 268.67 132.83 268.5 132.83 266.17 133.0 266.0 133.0 264.5 133.17 264.33 133.17 263.83 133.33 263.67 133.33 262.33 133.5 262.17 133.5 261.67 133.67 261.5 133.67 261.0 133.83 260.83 133.83 260.17 134.0 260.0 134.0 259.33 134.17 259.17 134.17 259.0 134.33 258.83 134.33 258.0 134.5 257.83 134.5 257.67 134.67 257.5 134.67 257.33 134.83 257.17 134.83 256.17 135.0 256.0 135.0 255.67 135.17 255.5 135.17 255.0 135.33 254.83 135.33 254.33 135.5 254.17 135.5 253.83 135.83 253.5 135.83 252.67 136.0 252.5 136.0 252.33 136.17 252.17 136.17 249.5 136.33 249.33 136.5 249.33 136.5 247.33 136.67 247.17 136.67 246.0 136.5 245.83 136.5 245.33 136.67 245.17 136.67 244.33 136.5 244.17 136.5 242.0 136.33 241.83 136.33 241.17 136.17 241.0 136.17 240.33 136.0 240.17 136.0 239.83 135.83 239.67 135.83 238.5 136.0 238.33 136.0 237.17 136.5 236.67 136.83 236.67 137.5 237.33 137.67 237.33 138.17 237.83 138.5 237.83 138.83 238.17 139.0 238.17 139.67 238.83 139.83 238.83 140.0 239.0 140.0 239.17 140.17 239.17 140.33 239.33 140.5 239.33 140.67 239.5 140.83 239.5 141.0 239.33 141.17 239.33 141.33 239.5 141.67 239.5 141.83 239.67 141.83 239.83 142.33 239.83 142.5 240.0 142.83 240.0 143.17 240.33 143.83 240.33 144.0 240.17 144.5 240.17 144.83 240.5 145.5 240.5 145.67 240.67 145.67 240.83 146.5 240.83 146.83 241.17 147.17 241.17 147.33 241.33 147.5 241.33 147.67 241.5 147.83 241.5 148.0 241.67 148.17 241.67 148.5 242.0 149.33 242.0 150.0 242.67 150.17 242.67 150.5 243.0 150.67 243.0 150.83 243.17 151.33 243.17 151.83 243.67 151.83 243.83 152.5 244.5 152.5 246.5 152.33 246.67 152.33 246.83 152.17 247.0 152.17 247.33 151.67 247.83 151.67 248.0 151.5 248.17 151.5 248.33 151.33 248.5 151.33 248.67 151.17 248.83 151.17 249.17 151.0 249.33 151.0 249.67 150.83 249.83 150.83 250.5 150.67 250.67 150.67 251.0 150.5 251.17 150.5 251.33 150.17 251.67 150.17 251.83 149.33 252.67 149.33 253.0 149.0 253.33 149.0 253.5 148.83 253.67 148.83 254.33 148.67 254.5 148.67 254.83 148.5 255.0 148.5 255.17 148.33 255.33 148.33 255.5 148.17 255.67 148.17 255.83 148.0 256.0 148.0 256.17 147.83 256.33 147.83 256.5 147.5 256.83 147.33 256.83 147.17 257.0 147.17 257.17 146.83 257.5 146.83 257.67 146.67 257.83 146.67 258.33 146.5 258.5 146.5 258.67 146.33 258.83 146.33 259.33 146.17 259.5 146.17 259.83 146.0 260.0 146.0 260.17 145.83 260.33 145.83 260.5 145.67 260.67 145.67 260.83 145.33 261.17 145.33 261.33 145.17 261.5 145.17 261.67 145.0 261.83 145.0 262.0 144.83 262.17 144.83 262.33 144.67 262.5 144.67 262.67 144.5 262.83 144.5 263.5 144.33 263.67 144.33 264.33 144.17 264.5 144.17 265.33 144.0 265.5 144.0 265.67 143.83 265.83 143.83 266.17 143.67 266.33 143.67 266.67 143.5 266.83 143.5 267.0 143.33 267.17 143.33 267.33 143.17 267.5 143.17 267.67 143.0 267.83 143.0 268.0 142.83 268.17 142.83 268.33 142.67 268.5 142.67 268.83 142.5 269.0 142.5 269.17 142.33 269.33 142.33 269.5 142.17 269.67 142.17 270.67 142.0 270.83 142.0 271.5 141.83 271.67 141.83 272.5 141.67 272.67 141.67 272.83 141.5 273.0 141.5 273.17 141.33 273.33 141.33 273.67 140.83 274.17 140.83 274.33 140.67 274.5 140.67 274.83 140.33 275.17 140.33 275.5 140.17 275.67 140.17 276.17 140.0 276.33 140.0 277.0 139.83 277.17 139.83 278.33 139.67 278.5 139.67 279.0 139.5 279.17 139.5 280.0 139.33 280.17 139.33 280.5 139.17 280.67 139.17 281.0 139.0 281.17 138.83 281.17 138.83 281.33 138.67 281.5 138.67 281.67 138.5 281.83 138.5 282.0 138.33 282.17 138.33 282.5 138.17 282.67 138.17 283.17 138.0 283.33 138.0 284.17 137.83 284.33 137.83 285.83 137.67 286.0 137.67 287.83 137.5 288.0 137.5 294.33 137.33 294.5 137.33 294.67 137.5 294.83 137.5 297.67 137.67 297.83 137.67 300.83 137.83 301.0 137.83 301.33 138.0 301.5 138.0 302.17 138.17 302.33 138.17 302.5 138.33 302.67 138.33 303.0 138.67 303.33 138.67 303.5 138.83 303.67 138.83 304.0 139.0 304.17 139.0 304.5 139.17 304.67 139.17 305.17 139.33 305.33 139.33 307.83 139.5 308.0 139.5 309.5 139.67 309.67 139.67 310.17 139.83 310.17 140.0 310.33 140.0 310.83 140.17 311.0 140.17 311.17 141.33 312.33 141.33 312.5 141.83 313.0 141.83 313.33 142.0 313.5 142.0 313.67 142.17 313.83 142.17 314.0 142.5 314.33 142.5 314.5 142.83 314.83 142.83 315.0 143.0 315.0 143.5 315.5 143.5 315.67 143.67 315.83 143.67 316.0 143.83 316.17 143.83 316.67 143.67 316.83 143.67 317.33 143.83 317.5 143.83 318.17 144.33 318.17 144.5 318.33 144.5 318.5 145.0 318.5 145.17 318.67 146.0 318.67 146.17 318.83 146.33 318.83 146.5 319.0 147.33 319.0 147.5 319.17 147.83 319.17 148.0 319.33 148.0 319.5 148.17 319.5 148.33 319.33 148.67 319.33 148.83 319.5 149.33 319.5 149.5 319.67 150.17 319.67 150.33 319.83 151.67 319.83 151.83 320.0 152.33 320.0 152.5 320.17 154.17 320.17 154.33 320.33 154.67 320.33 154.83 320.17 155.0 320.17 155.17 320.33 157.83 320.33 158.0 320.5 166.67 320.5 166.83 320.33 167.0 320.33 167.17 320.5 167.33 320.5 167.5 320.33 168.17 320.33 168.17 320.17 168.33 320.0 169.0 320.0 169.17 319.83 169.83 319.83 170.0 319.67 170.17 319.67 170.33 319.5 170.83 319.5 171.0 319.33 171.17 319.33 171.33 319.17 171.83 319.17 172.17 318.83 172.33 318.83 172.5 318.67 172.67 318.67 173.33 318.0 173.5 318.0 174.0 317.5 174.17 317.5 174.33 317.33 174.5 317.33 176.33 315.5 176.5 315.5 176.83 315.17 177.0 315.17 177.17 315.0 177.17 314.67 177.5 314.33 177.5 314.17 179.17 312.5 179.33 312.5 179.83 312.0 179.83 311.83 180.67 311.0 181.0 311.0 181.5 310.5 181.5 310.33 181.67 310.17 181.83 310.17 181.83 310.0 182.0 309.83 182.0 309.67 182.67 309.0 182.83 309.0 183.0 308.83 183.0 308.67 183.67 308.0 183.67 307.67 183.83 307.5 183.83 307.17 184.0 307.0 184.0 306.83 184.17 306.67 184.17 306.33 184.5 306.0 184.5 305.5 185.17 304.83 185.17 304.5 185.33 304.33 185.33 304.17 185.5 304.0 185.5 303.67 185.83 303.33 185.83 303.0 186.0 302.83 186.0 302.5 186.17 302.33 186.17 302.0 186.5 301.67 186.5 301.5 186.67 301.33 186.67 301.17 187.5 300.33 187.5 300.17 187.83 299.83 187.83 299.5 188.0 299.33 188.0 299.17 188.33 298.83 188.33 298.67 188.5 298.5 188.5 298.0 189.83 296.67 189.83 296.5 190.0 296.33 190.0 296.17 190.17 296.0 190.17 295.83 190.5 295.5 190.5 295.0 190.67 294.83 190.67 294.67 190.83 294.5 190.83 294.17 191.17 293.83 191.17 293.67 192.33 292.5 192.33 292.33 192.5 292.17 192.5 291.67 192.67 291.5 192.67 291.0 192.83 290.83 192.83 290.67 193.0 290.5 193.0 290.33 193.17 290.17 193.17 289.33 193.33 289.17 193.33 288.33 193.5 288.17 193.5 287.5 193.33 287.33 193.33 286.67 193.5 286.5 193.5 286.33 193.33 286.17 193.33 285.17 193.5 285.0 193.5 284.67 193.67 284.5 193.67 284.17 193.83 284.0 193.83 283.5 194.0 283.33 194.0 283.0 194.17 282.83 194.17 282.67 194.33 282.5 194.33 282.33 194.5 282.17 194.5 281.67 194.67 281.5 194.67 281.33 194.83 281.17 194.83 281.0 195.0 280.83 195.0 280.33 195.17 280.17 195.17 279.83 195.33 279.67 195.33 279.33 195.5 279.17 195.5 279.0 195.67 278.83 195.67 278.67 196.0 278.33 196.0 278.17 196.17 278.0 196.5 278.0 196.5 277.83 196.67 277.67 196.67 277.5 197.0 277.17 197.0 276.83 197.17 276.67 197.17 276.5 197.33 276.33 197.33 276.17 197.5 276.0 197.5 275.67 198.17 275.0 198.33 275.0 198.33 274.83 199.17 274.0 199.17 273.83 199.5 273.5 199.5 273.33 200.0 272.83 200.0 272.67 200.17 272.5 200.33 272.5 201.5 271.33 201.5 271.17 201.83 270.83 201.83 270.67 202.0 270.5 202.0 270.33 202.17 270.17 202.33 270.17 203.0 269.5 203.17 269.5 203.5 269.17 203.5 269.0 203.67 268.83 203.67 268.67 203.83 268.5 203.83 268.33 204.17 268.0 204.17 267.83 204.5 267.5 204.5 267.33 205.33 266.5 205.5 266.5 205.5 266.33 205.67 266.17 205.83 266.17 205.83 265.67 206.0 265.5 206.0 265.33 206.17 265.17 206.17 265.0 206.33 264.83 206.33 264.67 206.5 264.5 206.5 264.33 206.83 264.0 206.83 263.83 207.33 263.33 207.33 263.17 207.5 263.0 207.5 262.83 208.0 262.33 208.0 262.17 208.17 262.0 208.17 261.33 208.33 261.17 208.33 261.0 208.5 260.83 208.5 260.0 208.67 259.83 208.67 259.33 208.83 259.17 208.83 259.0 209.0 258.83 209.0 258.33 209.17 258.17 209.17 257.83 209.5 257.5 209.5 257.17 209.83 256.83 209.83 256.5 210.0 256.33 210.0 256.17 210.17 256.0 210.17 255.67 210.5 255.33 210.5 255.0 210.67 254.83 210.67 254.33 210.83 254.17 210.83 254.0 211.5 253.33 211.67 253.33 212.5 254.17 212.5 254.33 212.67 254.5 212.67 254.67 212.83 254.83 212.83 255.5 213.0 255.67 213.0 256.0 213.17 256.17 213.17 256.83 213.33 257.0 213.33 257.5 213.5 257.67 213.5 258.17 213.67 258.33 213.67 258.5 213.83 258.67 213.83 258.83 214.17 259.17 214.17 259.33 214.5 259.67 214.5 259.83 214.67 260.0 214.67 260.17 214.83 260.33 214.83 260.5 215.0 260.67 215.0 260.83 215.17 261.0 215.17 261.17 215.33 261.33 215.33 261.83 215.5 262.0 215.5 262.33 215.67 262.5 215.67 262.83 215.83 263.0 215.83 263.17 216.17 263.5 216.17 263.67 216.5 264.0 216.5 264.17 216.83 264.5 216.83 264.67 217.17 265.0 217.17 265.17 217.33 265.33 217.33 265.67 217.5 265.83 217.5 266.17 217.67 266.33 217.67 266.5 217.83 266.67 217.83 267.0 218.0 267.17 218.0 267.33 218.17 267.5 218.17 267.67 218.5 268.0 218.5 268.17 218.67 268.33 218.67 268.5 219.17 269.0 219.17 269.17 219.33 269.33 219.33 269.5 219.5 269.67 219.5 269.83 219.67 270.0 219.67 270.17 219.83 270.33 219.83 270.83 220.0 271.0 220.0 271.33 220.17 271.5 220.17 271.83 220.33 272.0 220.33 272.17 220.5 272.33 220.5 272.5 221.0 273.0 221.0 273.17 221.33 273.5 221.33 273.67 221.5 273.83 221.5 274.0 221.83 274.33 221.83 274.5 222.0 274.67 222.0 275.33 222.17 275.5 222.17 275.67 222.33 275.83 222.33 276.0 222.5 276.17 222.5 276.33 222.67 276.5 222.67 276.67 222.83 276.83 223.0 276.83 223.17 277.0 223.17 277.33 223.5 277.67 223.5 277.83 223.67 278.0 223.67 278.17 224.0 278.5 224.0 278.67 224.17 278.83 224.17 279.17 224.33 279.33 224.33 279.5 224.5 279.67 224.5 280.0 224.67 280.17 224.67 280.33 224.83 280.5 224.83 280.67 225.0 280.83 225.0 281.0 225.17 281.17 225.33 281.17 225.5 281.33 225.5 281.5 226.0 282.0 226.0 282.17 226.17 282.33 226.17 282.5 226.5 282.83 226.5 283.0 226.67 283.17 226.67 283.5 226.83 283.67 226.83 283.83 227.17 284.17 227.17 284.33 227.5 284.67 227.5 284.83 227.67 285.0 227.67 285.17 227.83 285.33 227.83 285.5 228.17 285.83 228.17 286.17 228.33 286.33 228.33 287.0 228.5 287.17 228.5 287.33 228.67 287.5 228.67 288.17 228.83 288.33 228.83 289.33 229.0 289.5 229.0 291.0 229.17 291.17 229.17 294.0 229.0 294.17 229.0 294.83 228.83 295.0 228.83 295.17 228.67 295.33 228.67 296.0 228.5 296.17 228.5 296.33 228.17 296.67 228.17 297.0 228.0 297.17 228.0 297.33 227.5 297.83 227.5 298.0 227.33 298.17 227.33 298.33 227.17 298.5 227.0 298.5 226.83 298.67 226.83 298.83 226.0 299.67 226.0 299.83 225.83 300.0 225.67 300.0 225.5 300.17 225.5 300.33 225.17 300.67 225.0 300.67 224.67 301.0 224.67 301.17 224.5 301.33 224.33 301.33 224.33 301.67 224.17 301.83 224.17 302.0 224.0 302.17 224.0 302.33 223.17 303.17 223.17 303.33 222.33 304.17 222.17 304.17 222.17 304.33 221.17 305.33 221.0 305.33 220.83 305.5 220.67 305.5 220.17 306.0 220.0 306.0 219.83 306.17 219.67 306.17 219.33 306.5 219.17 306.5 219.17 306.67 219.0 306.83 218.83 306.83 218.5 307.17 218.33 307.17 217.83 307.67 217.67 307.67 217.17 308.17 217.0 308.17 216.67 308.5 216.5 308.5 216.17 308.83 216.0 308.83 215.83 309.0 215.83 309.17 215.5 309.5 215.17 309.5 215.17 309.67 215.0 309.83 214.83 309.83 213.83 310.83 213.67 310.83 213.17 311.33 213.0 311.33 212.5 311.83 212.33 311.83 211.33 312.83 211.17 312.83 211.17 313.0 210.83 313.33 210.83 313.5 210.67 313.67 210.67 314.0 210.83 314.17 210.83 314.5 211.17 314.83 211.17 315.17 211.5 315.5 211.67 315.5 211.83 315.67 212.17 315.67 212.33 315.83 212.67 315.83 212.83 316.0 213.17 316.0 213.33 316.17 214.5 316.17 214.67 316.33 216.33 316.33 216.5 316.17 218.83 316.17 219.0 316.0 219.17 316.0 219.33 316.17 219.67 316.17 219.83 316.0 222.17 316.0 222.33 315.83 227.5 315.83 227.67 316.0 228.0 316.0 228.17 315.83 228.17 315.5 228.33 315.33 228.67 315.33 228.83 315.5 228.83 315.83 229.5 315.83 229.67 315.67 230.83 315.67 231.0 315.5 231.5 315.5 231.67 315.33 232.5 315.33 232.67 315.17 233.33 315.17 233.5 315.0 233.67 315.0 233.83 315.17 234.0 315.17 234.17 315.0 234.83 315.0 235.0 315.17 235.67 315.17 235.83 315.0 236.0 315.0 236.17 314.83 237.33 314.83 237.67 314.5 237.83 314.5 238.0 314.67 238.0 314.83 237.83 315.0 237.83 315.17 238.33 315.17 238.5 315.0 238.67 315.0 238.83 315.17 241.83 315.17 242.0 315.33 243.33 315.33 243.67 315.0 244.17 315.0 244.33 314.83 245.17 314.83 245.33 315.0 245.33 315.17 245.83 315.17 246.0 315.0 246.17 315.0 246.33 314.83 247.0 314.83 247.17 315.0 247.5 315.0 247.67 314.83 249.33 314.83 249.5 314.67 257.0 314.67 257.17 314.5 272.83 314.5 273.0 314.67 273.5 314.67 273.67 314.5 276.17 314.5 276.33 314.33 277.0 314.33 277.17 314.17 277.83 314.17 278.0 314.0 278.33 314.0 278.5 313.83 278.67 313.83 278.83 313.67 279.0 313.67 279.33 313.33 279.67 313.33 279.83 313.17 280.0 313.17 280.17 313.0 280.33 313.0 280.5 312.83 280.67 312.83 281.0 312.5 281.17 312.5 281.67 312.0 281.83 312.0 281.83 311.83 282.0 311.67 282.0 311.33 282.17 311.17 282.17 311.0 282.33 310.83 282.33 310.33 282.5 310.17 282.5 306.83 282.33 306.67 282.33 302.67 282.17 302.5 282.17 300.5 282.0 300.33 282.0 299.5 281.83 299.33 281.83 297.83 281.67 297.67 281.67 296.67 281.5 296.5 281.5 295.5 281.33 295.33 281.33 294.83 281.17 294.67 281.17 291.33 281.33 291.17 281.33 289.83 281.5 289.67 281.5 289.0 281.67 288.83 281.67 287.83 281.5 287.67 281.5 287.5 281.33 287.33 281.33 287.0 281.5 286.83 281.83 286.83 282.0 286.67 282.0 285.83 282.17 285.67 282.17 285.0 282.33 284.83 282.5 284.83 282.5 284.17 282.67 284.0 282.67 283.83 282.83 283.67 282.83 283.5 283.0 283.33 283.0 283.17 283.33 282.83 283.33 282.5 283.5 282.33 283.5 281.67 283.67 281.5 283.67 280.67 283.83 280.5 283.83 280.0 284.0 279.83 284.0 279.17 284.17 279.0 284.17 278.83 284.0 278.67 284.0 278.33 284.17 278.17 284.17 277.83 284.33 277.67 284.33 277.17 284.5 277.0 284.5 276.33 284.67 276.17 284.67 275.67 284.83 275.5 284.83 275.33 285.0 275.17 285.0 275.0 285.17 274.83 285.17 274.67 285.33 274.5 285.5 274.5 285.5 273.67 285.67 273.5 285.67 273.17 285.83 273.0 285.83 272.33 286.0 272.17 286.0 271.33 286.17 271.17 286.17 270.67 286.33 270.5 286.33 270.0 286.5 269.83 286.5 269.17 286.67 269.0 286.67 268.33 287.0 268.0 287.0 267.67 287.17 267.5 287.17 267.33 287.33 267.17 287.33 267.0 287.5 266.83 287.5 266.67 288.0 266.17 288.0 266.0 288.17 265.83 288.17 265.0 288.33 264.83 288.33 264.67 288.5 264.5 288.5 263.5 288.67 263.33 288.67 262.67 288.83 262.5 288.83 262.33 289.0 262.17 289.0 261.67 289.17 261.5 289.17 261.0 289.33 260.83 289.33 260.67 289.5 260.5 289.5 260.33 289.67 260.17 289.67 260.0 289.83 259.83 289.83 259.33 290.0 259.17 290.0 258.83 290.17 258.67 290.17 258.33 290.33 258.17 290.33 257.67 290.5 257.5 290.5 256.67 290.67 256.5 290.67 256.17 290.83 256.0 290.83 255.17 291.0 255.0 291.0 254.83 291.17 254.67 291.17 254.17 291.33 254.0 291.33 253.67 291.5 253.5 291.5 253.33 291.83 253.0 291.83 252.83 292.17 252.5 292.17 252.0 292.33 251.83 292.33 251.67 292.5 251.5 292.5 250.83 292.67 250.67 292.67 250.17 292.83 250.0 292.83 249.33 293.0 249.17 293.0 248.83 293.17 248.67 293.17 248.17 293.33 248.0 293.33 247.67 293.83 247.17 293.83 246.83 294.17 246.5 294.17 246.33 294.33 246.17 294.33 246.0 294.5 245.83 294.5 245.67 294.83 245.33 294.83 244.5 295.0 244.33 295.0 244.17 295.17 244.0 295.17 243.17 295.33 243.0 295.33 242.67 295.5 242.5 295.5 242.0 295.67 241.83 295.67 241.5 295.83 241.33 295.83 241.17 296.0 241.0 296.0 240.67 296.17 240.5 296.17 240.33 296.33 240.17 296.33 239.67 296.5 239.5 296.5 239.33 296.67 239.17 296.67 239.0 296.83 238.83 296.83 238.33 297.0 238.17 297.0 238.0 297.17 237.83 297.17 237.0 297.33 236.83 297.33 236.5 297.5 236.33 297.5 235.67 297.67 235.5 297.67 235.0 297.83 234.83 297.83 234.0 298.0 233.83 298.0 233.5 298.17 233.33 298.17 233.0 298.33 232.83 298.33 232.67 298.5 232.5 298.5 232.0 298.83 231.67 298.83 231.33 299.0 231.17 299.0 231.0 299.17 230.83 299.17 230.33 299.33 230.17 299.33 229.83 299.5 229.67 299.5 229.17 299.67 229.0 299.67 228.67 299.83 228.5 299.83 228.0 300.0 227.83 300.0 227.33 300.17 227.17 300.17 227.0 300.33 226.83 300.33 226.67 300.5 226.5 300.5 226.33 300.67 226.17 300.67 225.67 301.0 225.33 301.0 225.0 301.17 224.83 301.17 224.33 301.33 224.17 301.33 223.5 301.5 223.33 301.5 222.83 301.67 222.67 301.67 221.67 301.83 221.5 301.83 220.17 302.0 220.0 302.0 219.17 302.17 219.0 302.17 218.67 302.33 218.5 302.33 218.33 302.5 218.17 302.5 218.0 302.83 217.67 302.83 217.33 303.0 217.17 303.17 217.17 303.17 217.0 303.33 216.83 303.33 216.67 303.83 216.17 303.83 215.67 304.0 215.5 304.0 215.17 304.17 215.0 304.17 214.67 304.33 214.5 304.33 213.83 304.5 213.67 304.5 213.33 304.67 213.17 304.67 212.83 304.83 212.67 304.83 212.33 305.0 212.17 305.0 212.0 305.17 211.83 305.17 211.67 305.33 211.5 305.33 211.33 305.5 211.17 305.5 210.83 305.67 210.67 305.67 210.33 305.83 210.17 305.83 209.83 306.0 209.67 306.0 209.0 306.17 208.83 306.17 208.17 306.33 208.0 306.33 207.5 306.5 207.33 306.5 206.83 306.67 206.67 306.67 206.33 306.83 206.17 306.83 205.83 307.17 205.5 307.17 205.17 307.5 204.83 307.5 204.67 307.67 204.5 307.67 204.33 308.0 204.0 308.0 203.33 308.17 203.17 308.17 202.83 308.33 202.67 308.33 202.0 308.5 201.83 308.5 200.67 308.67 200.5 308.67 200.17 308.83 200.0 308.83 199.33 309.0 199.17 309.0 198.67 309.17 198.5 309.17 198.33 309.33 198.17 309.33 197.67 309.5 197.5 309.5 197.33 309.67 197.17 309.67 197.0 309.83 196.83 309.83 196.33 310.0 196.17 310.0 195.83 310.17 195.67 310.17 195.33 310.33 195.17 310.33 194.83 310.5 194.67 310.5 193.5 310.67 193.33 310.67 192.83 310.83 192.67 310.83 192.0 311.0 191.83 311.0 191.5 311.17 191.33 311.17 190.83 311.33 190.67 311.33 190.33 311.5 190.17 311.5 190.0 311.67 189.83 311.67 189.67 311.83 189.5 311.83 189.17 312.0 189.0 312.0 188.83 312.17 188.67 312.17 188.33 312.33 188.17 312.33 187.67 312.5 187.5 312.5 186.67 312.67 186.5 312.67 184.67 312.83 184.5 312.83 181.0 313.0 180.83 313.0 179.33 313.17 179.17 313.17 178.0 313.33 177.83 313.33 177.33 313.5 177.17 313.5 176.67 313.67 176.5 313.67 176.17 313.83 176.0 313.83 174.83 314.0 174.67 314.0 174.0 314.17 173.83 314.17 172.67 314.33 172.5 314.33 171.33 314.5 171.17 314.5 169.83 314.67 169.67 314.67 168.17 314.5 168.0 314.5 167.0 314.67 166.83 314.67 165.83 314.83 165.67 314.83 165.5 314.67 165.33 314.67 164.33 314.5 164.17 314.5 163.5 314.33 163.33 314.33 162.0 314.17 161.83 314.17 161.5 314.0 161.33 314.0 161.0 313.83 160.83 313.83 160.33 313.67 160.17 313.67 159.83 313.5 159.67 313.5 159.33 313.33 159.17 313.33 158.5 313.17 158.33 313.17 157.67 313.0 157.5 313.0 156.67 312.83 156.5 312.83 155.33 312.67 155.17 312.67 154.5 312.5 154.33 312.5 152.67 312.33 152.5 312.33 152.17 312.17 152.0 312.17 151.67 311.83 151.33 311.83 150.83 311.67 150.67 311.67 150.17 311.5 150.0 311.5 149.83 311.33 149.67 311.33 149.17 311.17 149.0 311.17 148.5 311.0 148.33 311.0 148.17 310.83 148.0 310.83 147.33 310.67 147.17 310.67 146.17 310.5 146.0 310.5 143.83 310.33 143.67 310.33 142.17 310.17 142.0 310.17 141.17 310.0 141.0 310.0 140.17 309.83 140.0 309.83 139.5 309.67 139.33 309.67 139.0 309.5 138.83 309.5 138.5 309.33 138.33 309.33 138.17 309.17 138.0 309.17 137.67 309.0 137.5 309.0 137.17 308.83 137.0 308.83 136.83 308.67 136.67 308.67 136.33 308.5 136.17 308.5 135.17 308.33 135.0 308.33 134.5 308.17 134.33 308.17 133.83 308.0 133.67 308.0 133.0 307.83 132.83 307.83 132.33 307.67 132.17 307.67 132.0 307.5 131.83 307.5 131.67 307.33 131.5 307.33 131.33 307.17 131.17 307.17 131.0 306.83 130.67 306.83 130.33 306.5 130.0 306.5 129.5 306.33 129.33 306.33 129.0 306.17 128.83 306.17 128.33 306.0 128.17 306.0 127.33 305.83 127.17 305.83 126.5 305.5 126.17 305.5 125.67 305.17 125.33 305.17 125.17 304.83 124.83 304.83 124.67 304.5 124.33 304.5 124.17 304.33 124.0 304.33 123.83 304.17 123.67 304.17 123.33 304.0 123.17 304.0 122.83 303.83 122.67 303.83 122.17 303.67 122.0 303.67 121.5 303.33 121.17 303.33 120.83 303.17 120.67 303.17 120.5 302.67 120.0 302.67 119.83 302.33 119.5 302.33 119.33 302.17 119.17 302.17 119.0 302.0 118.83 302.0 118.67 301.83 118.5 301.83 118.0 301.67 117.83 301.67 117.33 301.5 117.17 301.5 116.83 301.33 116.67 301.33 116.33 301.0 116.0 301.0 115.83 300.5 115.33 300.5 115.17 300.33 115.0 300.33 114.83 300.17 114.67 300.17 114.5 300.0 114.5 299.83 114.33 299.83 114.0 299.67 113.83 299.67 113.67 299.5 113.5 299.5 113.17 299.33 113.0 299.33 112.5 299.17 112.33 299.17 111.83 299.0 111.83 298.83 111.67 298.83 111.5 298.5 111.17 298.5 111.0 297.83 110.33 297.83 110.17 297.5 109.83 297.5 109.5 297.33 109.33 297.33 109.17 297.17 109.0 297.17 108.67 297.0 108.5 297.0 108.17 296.67 107.83 296.67 107.5 295.5 106.33 295.5 106.17 295.33 106.0 295.33 105.83 295.17 105.67 295.17 105.33 294.83 105.0 294.83 104.5 294.67 104.33 294.67 104.17 293.67 103.17 293.67 103.0 293.0 102.33 293.0 102.17 292.67 101.83 292.67 101.5 292.5 101.33 292.5 101.0 292.17 100.67 292.0 100.67 291.83 100.5 291.83 100.33 291.0 99.5 291.0 99.33 290.5 98.83 290.5 98.5 290.33 98.33 290.33 98.17 290.17 98.17 290.0 98.0 290.0 97.83 288.17 96.0 288.17 95.83 287.17 94.83 287.0 94.83 286.83 94.67 286.67 94.67 286.5 94.5 286.5 94.33 285.83 93.67 285.83 93.5 285.67 93.5 285.17 93.0 285.0 93.0 283.83 91.83 283.83 91.67 283.67 91.5 283.5 91.5 283.0 91.0 282.83 91.0 282.5 90.67 282.33 90.67 282.0 90.33 282.0 90.17 281.83 90.17 281.17 89.5 281.0 89.5 280.5 89.0 280.33 89.0 279.67 88.33 279.5 88.33 279.17 88.0 279.17 87.83 279.0 87.83 278.67 87.5 278.5 87.5 277.83 86.83 277.67 86.83 277.0 86.17 276.83 86.17 275.83 85.17 275.67 85.17 273.83 83.33 273.67 83.33 272.83 82.5 272.83 82.33 272.67 82.17 272.67 82.0 272.17 81.5 272.0 81.5 271.17 80.67 271.17 80.5 270.5 79.83 270.5 79.67 270.33 79.5 270.17 79.5 270.0 79.33 270.0 79.17 269.5 78.67 269.33 78.67 268.67 78.0 268.33 78.0 268.17 77.83 268.0 77.83 267.67 77.5 267.5 77.5 267.17 77.17 267.0 77.17 266.67 76.83 266.5 76.83 266.33 76.67 266.0 76.67 265.67 76.33 265.33 76.33 265.17 76.17 265.0 76.17 264.83 76.0 264.67 76.0 264.5 75.83 264.33 75.83 264.17 75.67 264.0 75.67 263.83 75.5 263.67 75.5 263.5 75.33 263.33 75.33 263.17 75.17 262.83 75.17 262.67 75.0 262.5 75.0 262.33 74.83 262.17 74.83 262.0 74.67 261.5 74.67 261.33 74.5 261.17 74.5 260.67 74.0 260.5 74.0 260.33 73.83 260.17 73.83 259.83 73.5 259.33 73.5 259.17 73.33 259.0 73.33 258.83 73.17 258.67 73.17 258.33 72.83 258.17 72.83 258.0 72.67 257.83 72.67 257.67 72.5 257.5 72.5 257.17 72.17 256.83 72.17 256.67 72.0 256.5 72.0 256.33 71.83 256.17 71.83 255.83 71.5 255.5 71.5 255.33 71.33 255.17 71.33 255.0 71.17 254.67 71.17 254.33 70.83 254.17 70.83 254.0 70.67 253.67 70.67 253.5 70.5 253.17 70.5 253.0 70.33 252.83 70.33 252.67 70.17 252.0 70.17 251.83 70.0 251.67 70.0 251.5 69.83 251.33 69.83 251.17 69.67 250.83 69.67 250.67 69.5 250.17 69.5 249.83 69.17 249.17 69.17 249.0 69.0 248.83 69.0 248.67 68.83 247.5 68.83 247.33 68.67 247.0 68.67 246.83 68.5 246.67 68.5 246.5 68.33 245.83 68.33 245.67 68.17 245.33 68.17 245.17 68.0 244.83 68.0 244.67 67.83 243.83 67.83 243.67 67.67 242.67 67.67 242.5 67.5 241.5 67.5 241.33 67.33 240.67 67.33 240.5 67.17 240.0 67.17 239.83 67.0 239.17 67.0 239.0 66.83 238.83 66.83 238.67 66.67 238.17 66.67 238.0 66.5 237.67 66.5 237.5 66.33 237.0 66.33 236.83 66.17 235.67 66.17 235.5 66.0 234.5 66.0 234.33 65.83 233.67 65.83 233.5 65.67 232.67 65.67 232.5 65.5 231.67 65.5 231.33 65.17 231.0 65.17 230.83 65.0 229.67 65.0 229.5 64.83 228.67 64.83 228.5 64.67 226.83 64.67 226.67 64.5 225.0 64.5 224.83 64.33 223.0 64.33 222.83 64.17 221.67 64.17 221.5 64.0 219.83 64.0 219.67 63.83 218.0 63.83 217.83 63.67 215.83 63.67 215.67 63.5 211.33 63.5 211.17 63.67 210.0 63.67 209.83 63.83 209.67 63.83 209.5 63.67 209.33 63.67 209.17 63.83 207.67 63.83 207.5 64.0 205.83 64.0 205.67 64.17 203.33 64.17 203.17 64.33 201.0 64.33 200.83 64.5 199.67 64.5 199.5 64.67 198.5 64.67 198.33 64.83 197.33 64.83 197.17 65.0 197.0 65.0 196.83 65.17 196.17 65.17 195.83 65.5 195.17 65.5 195.0 65.67 194.33 65.67 194.17 65.83 193.67 65.83 193.5 66.0 193.0 66.0 192.83 66.17 192.17 66.17 192.0 66.33 191.5 66.33 191.33 66.5 191.0 66.5 190.83 66.67 190.67 66.67 190.5 66.83 189.83 66.83 189.67 67.0 189.33 67.0 189.17 67.17 188.5 67.17 188.33 67.33 187.67 67.33 187.5 67.5 186.5 67.5 186.33 67.67 185.83 67.67 185.67 67.83 185.33 67.83 185.17 68.0 184.67 68.0 184.5 68.17 184.17 68.17 184.0 68.33 183.67 68.33 183.5 68.5 183.33 68.5 183.17 68.67 182.83 68.67 182.67 68.83 182.17 68.83 182.0 69.0 181.33 69.0 181.17 69.17 181.0 69.17 180.83 69.33 180.5 69.33 180.33 69.5 180.17 69.5 180.0 69.67 179.5 69.67 179.33 69.83 179.17 69.83 179.0 70.0 178.83 70.0 178.67 70.17 178.33 70.17 178.17 70.33 177.83 70.33 177.67 70.5 177.17 70.5 177.0 70.67 176.83 70.67 176.67 70.83 176.33 70.83 176.0 71.17 175.67 71.17 175.5 71.33 175.17 71.33 175.0 71.5 174.83 71.5 174.67 71.67 174.5 71.67 174.33 71.83 174.0 71.83 173.83 72.0 173.5 72.0 173.33 72.17 172.83 72.17 172.5 72.5 172.33 72.5 172.17 72.67 172.0 72.67 171.83 72.83 171.67 72.83 171.5 73.0 171.33 73.0 171.17 73.17 170.83 73.17 170.67 73.33 170.0 73.33 169.83 73.5 169.67 73.5 169.5 73.67 169.0 73.67 168.83 73.83 168.33 73.83 168.17 74.0 167.83 74.0 167.67 74.17 167.33 74.17 167.17 74.33 166.67 74.33 166.5 74.5 163.5 74.5 163.33 74.33 162.67 74.33 162.5 74.17 162.17 74.17 162.0 74.0 161.33 74.0 161.17 73.83 161.0 73.83 160.83 73.67 160.67 73.67 160.5 73.5 160.0 73.5 159.83 73.33 159.5 73.33 159.33 73.17 159.17 73.17 159.0 73.0 158.83 73.0 158.67 72.83 158.5 72.83 158.17 72.5 158.0 72.5 157.83 72.33 157.67 72.33 157.5 72.17 157.33 72.17 157.17 72.0 157.0 72.0 156.83 71.83 156.67 71.83 156.5 71.67 156.33 71.67 156.17 71.5 156.0 71.5 155.83 71.33 155.67 71.33 155.5 71.17 155.33 71.17 155.0 70.83 154.83 70.83 154.67 70.67 154.33 70.67 154.17 70.5 154.0 70.5 153.83 70.33 153.67 70.33 153.5 70.17 153.33 70.17 153.0 69.83 152.83 69.83 152.67 69.67 152.5 69.67 152.17 69.33 151.83 69.33 151.33 68.83 151.0 68.83 150.83 68.67 150.67 68.67 150.33 68.33 150.17 68.33 149.67 67.83 149.5 67.83 149.17 67.5 149.0 67.5 148.83 67.33 148.67 67.33 147.83 66.5 147.67 66.5 147.5 66.33 147.5 66.17 147.33 66.0 147.17 66.0 146.67 65.5 146.5 65.5 146.17 65.17 146.17 65.0 145.83 64.67 145.67 64.67 145.5 64.5 145.5 64.33 145.17 64.0 145.0 64.0 144.5 63.5 144.33 63.5 143.83 63.0 143.83 62.83 143.17 62.17 143.0 62.17 142.0 61.17 142.0 61.0 141.83 60.83 141.67 60.83 141.5 60.67 141.5 60.33 141.17 60.0 141.17 59.83 139.83 58.5 139.83 58.33 139.67 58.17 139.5 58.17 139.33 58.0 139.33 57.83 139.17 57.67 139.17 57.5 139.0 57.33 139.0 57.17 138.83 57.0 138.83 56.83 138.67 56.83 138.17 56.33 138.17 56.17 137.83 55.83 137.83 55.67 137.67 55.5 137.67 55.17 137.33 54.83 137.33 54.67 137.17 54.5 137.17 52.5 137.33 52.33 137.33 51.5 137.5 51.33 137.5 51.0 137.67 50.83 137.67 50.33 137.83 50.17 137.83 49.83 138.0 49.67 138.0 49.5 138.17 49.33 138.17 49.17 138.83 48.5 138.83 48.33 139.0 48.17 139.0 48.0 139.17 47.83 139.17 47.17 139.33 47.0 139.33 46.33 139.5 46.17 139.5 45.67 139.67 45.5 139.67 45.0 139.83 44.83 139.83 44.5 140.0 44.33 140.0 44.17 140.17 44.0 140.17 43.67 140.33 43.5 140.33 43.17 140.5 43.0 140.5 42.83 140.67 42.67 140.67 42.0 140.83 41.83 140.83 41.5 141.0 41.33 141.0 40.83 141.17 40.67 141.17 38.67 141.33 38.5 141.33 37.0 141.17 36.83 141.17 35.5 141.0 35.33 141.0 34.5 140.83 34.33 140.83 34.0 140.67 33.83 140.67 33.67 140.5 33.5 140.5 33.17 140.33 33.17 140.17 33.0 140.17 32.67 140.0 32.5 140.0 32.33 139.83 32.17 139.83 32.0 139.67 31.83 139.67 31.5 139.5 31.33 139.5 31.17 139.33 31.0 139.33 30.83 139.17 30.67 139.17 30.5 139.0 30.33 139.0 30.17 138.5 29.67 138.5 29.5 138.33 29.5 138.0 29.17 137.83 29.17 137.0 28.33 136.83 28.33 136.67 28.17 136.5 28.17 136.17 27.83 135.67 27.83 135.33 27.5 134.33 27.5 134.17 27.33 133.0 27.33 132.83 27.17 128.17 27.17 128.0 27.33 127.0 27.33 126.83 27.5 126.0 27.5 125.83 27.67 125.33 27.67 125.17 27.83 124.83 27.83 124.5 28.17 124.17 28.17 124.0 28.33 123.5 28.33 123.17 28.67 122.67 28.67 122.33 29.0 122.17 29.0 122.0 29.17 121.67 29.17 121.5 29.33 121.33 29.33 121.17 29.5 120.83 29.5 120.67 29.67 119.83 29.67 119.67 29.83 119.0 29.83 118.83 29.67 118.17 29.67 118.0 29.5 117.5 29.5 117.33 29.33 117.17 29.33 117.0 29.17 116.33 29.17 116.17 29.0 116.17 28.83 115.67 28.83 115.5 28.67 115.33 28.67 115.17 28.5 115.0 28.5 114.67 28.17 114.33 28.17 114.17 28.0 114.0 28.0 113.83 27.83 113.67 27.83 113.5 27.67 113.33 27.67 113.17 27.5 112.83 27.5 112.67 27.33 112.0 27.33 111.83 27.17 111.67 27.17 111.5 27.0 110.83 27.0 110.5 26.67 110.17 26.67 110.0 26.5 109.67 26.5 109.5 26.33 109.17 26.33 109.0 26.17 108.0 26.17 107.83 26.0 107.33 26.0 107.17 25.83 106.33 25.83 106.17 25.67 104.17 25.67 104.0 25.5 103.0 25.5 102.83 25.33 101.17 25.33 101.0 25.17 Z" /></svg>